<svg width="68" height="60" viewBox="0 0 68 60" fill="none" xmlns="http://www.w3.org/2000/svg">
<path d="M0.5 47.8235C0.964597 47.2132 1.44486 46.6168 1.9408 46.0342C2.06341 45.8895 2.18693 45.7466 2.3123 45.6037C2.42107 45.4793 2.53077 45.3548 2.64139 45.2322C3.06911 44.7538 3.5079 44.2855 3.95774 43.8274C4.05822 43.7241 4.15962 43.6218 4.26195 43.5195C4.36335 43.4181 4.46567 43.3167 4.56983 43.2153C5.02798 42.7664 5.49626 42.3267 5.97469 41.8989C6.09821 41.7883 6.22173 41.6795 6.34618 41.5699C6.48906 41.4454 6.63286 41.321 6.77759 41.1984C7.3611 40.7024 7.95752 40.2222 8.56684 39.7576C9.03973 39.398 9.52 39.0468 10.0076 38.7067C10.3109 38.4947 10.617 38.2873 10.9258 38.0835C11.2217 37.8881 11.5204 37.6973 11.8218 37.5092C12.0071 37.394 12.1942 37.2788 12.3823 37.1663C12.7279 36.958 13.0773 36.7543 13.4294 36.5552C13.6322 36.4408 13.836 36.3284 14.0406 36.2168C14.6767 35.8721 15.3219 35.543 15.9764 35.2296C16.0124 35.2121 16.0483 35.1955 16.0852 35.178C16.7388 34.8682 17.4016 34.5742 18.0736 34.2976C18.3492 34.1842 18.6267 34.0736 18.905 33.9648C19.6775 33.6653 20.462 33.3878 21.2566 33.1334C21.4723 33.0642 21.688 32.9969 21.9046 32.9315C21.9719 32.9112 22.0383 32.89 22.1065 32.8706C22.23 32.8338 22.3536 32.7978 22.4771 32.7619C23.3418 32.513 24.2175 32.2908 25.1034 32.0972C25.4463 32.0216 25.792 31.9507 26.1386 31.8834C26.6391 31.7875 27.1433 31.699 27.6513 31.6207C27.9435 31.5755 28.2375 31.5331 28.5316 31.4934C29.0755 31.4206 29.6221 31.3579 30.1715 31.3072C30.8232 31.2455 31.4787 31.1985 32.1378 31.1671C32.1691 31.1653 32.2014 31.1634 32.2327 31.1625C32.8863 31.1321 33.5426 31.1173 34.2036 31.1173C34.8645 31.1173 35.5208 31.1321 36.1744 31.1625C36.2057 31.1634 36.238 31.1653 36.2694 31.1671C36.9285 31.1985 37.5848 31.2455 38.2356 31.3072C38.785 31.3589 39.3316 31.4215 39.8755 31.4934C40.1696 31.5331 40.4636 31.5755 40.7559 31.6207C41.2629 31.699 41.768 31.7875 42.2686 31.8834C42.5764 31.9433 42.8834 32.0051 43.1876 32.0714C43.2263 32.0797 43.265 32.088 43.3038 32.0972C44.1896 32.2908 45.0654 32.513 45.93 32.7619C46.0545 32.7969 46.1771 32.8338 46.3006 32.8706C46.3679 32.89 46.4352 32.9112 46.5025 32.9315C46.7191 32.9969 46.9357 33.0642 47.1505 33.1334C47.9451 33.3878 48.7287 33.6653 49.5021 33.9648C49.7805 34.0736 50.0579 34.1842 50.3336 34.2976C51.0046 34.5742 51.6683 34.8682 52.3219 35.178C52.3579 35.1955 52.3938 35.213 52.4307 35.2296C53.0852 35.543 53.7314 35.8721 54.3665 36.2168C54.5712 36.3284 54.7749 36.4408 54.9777 36.5552C55.3298 36.7533 55.6792 36.9571 56.0249 37.1663C56.5171 37.4631 57.002 37.7683 57.4813 38.0845C57.7902 38.2882 58.0962 38.4956 58.3995 38.7076C58.8871 39.0478 59.3683 39.398 59.8403 39.7585C60.4496 40.2231 61.046 40.7033 61.6295 41.1993C61.7733 41.3219 61.9171 41.4463 62.0609 41.5708C62.1854 41.6795 62.3089 41.7892 62.4324 41.8999C62.9109 42.3276 63.3791 42.7673 63.8373 43.2162C63.9405 43.3167 64.0429 43.4181 64.1452 43.5204C64.2466 43.6218 64.348 43.7241 64.4494 43.8283C64.8992 44.2865 65.338 44.7547 65.7657 45.2332C65.8764 45.3558 65.9851 45.4802 66.0948 45.6047C66.2202 45.7475 66.3437 45.8904 66.4663 46.0351C66.9622 46.6187 67.4434 47.2151 67.9071 47.8244L62.4334 53.2982L59.7315 56C59.3093 55.3842 58.865 54.7832 58.4004 54.2006C58.2677 54.0328 58.1321 53.8678 57.9948 53.7028C57.8814 53.5664 57.7671 53.4318 57.6519 53.2972C57.1458 52.7091 56.6185 52.1413 56.071 51.5937C55.5234 51.0462 54.9546 50.5189 54.3674 50.0128C54.2338 49.8976 54.0983 49.7833 53.9618 49.6699C53.7978 49.5325 53.6318 49.3979 53.4641 49.2643C52.8815 48.7997 52.2814 48.3554 51.6647 47.9332C51.2296 47.6345 50.7852 47.3469 50.3336 47.0703C49.951 46.8362 49.5638 46.6104 49.1721 46.3937C48.4171 45.9752 47.6428 45.5871 46.8509 45.2322C46.7246 45.1751 46.5965 45.1189 46.4693 45.0645C46.4131 45.0396 46.3577 45.0165 46.3015 44.9926C46.2333 44.9631 46.1642 44.9345 46.096 44.905L46.0941 44.9041C46.0259 44.8746 45.9568 44.8469 45.8876 44.8183C45.8166 44.7898 45.7457 44.7612 45.6738 44.7326C45.6738 44.7326 45.6728 44.7317 45.6719 44.7317C45.6479 44.7225 45.624 44.7123 45.6 44.7031C45.5124 44.6681 45.4249 44.634 45.3364 44.5999C45.3041 44.587 45.2709 44.5741 45.2387 44.5621C45.2387 44.5621 45.2384 44.5621 45.2377 44.5621C45.1649 44.5344 45.093 44.5068 45.0202 44.48C44.9474 44.4533 44.8745 44.4256 44.8017 44.3989C44.7464 44.3786 44.6902 44.3584 44.6339 44.339C44.5648 44.3141 44.4957 44.2892 44.4265 44.2653C44.3307 44.2311 44.2348 44.198 44.1389 44.1657C43.938 44.0975 43.7361 44.0311 43.5324 43.9675C43.5324 43.9675 43.5314 43.9675 43.5305 43.9675C43.454 43.9435 43.3784 43.9196 43.3019 43.8965C43.2623 43.8845 43.2236 43.8726 43.1839 43.8606C43.1074 43.8375 43.0318 43.8145 42.9562 43.7924C42.8908 43.773 42.8244 43.7536 42.759 43.7352C42.7405 43.7297 42.7221 43.7251 42.7037 43.7195C42.6364 43.7002 42.5681 43.6808 42.4999 43.6624C42.4225 43.6403 42.346 43.62 42.2686 43.5988H42.2676C42.1367 43.5637 42.0058 43.5296 41.874 43.4955C41.7754 43.4706 41.6768 43.4458 41.5781 43.4218C41.4795 43.3978 41.3808 43.3739 41.2813 43.3508C41.2149 43.3361 41.1485 43.3204 41.0813 43.3047C40.9494 43.2743 40.8158 43.2448 40.683 43.2162C40.5641 43.1913 40.4452 43.1664 40.3263 43.1425C40.2654 43.1305 40.2037 43.1185 40.1428 43.1065C39.5142 42.9839 38.8781 42.8807 38.2365 42.7968C37.759 42.735 37.2778 42.6834 36.7929 42.6428C36.3873 42.6087 35.979 42.5829 35.5697 42.5654C35.1162 42.5461 34.6617 42.5359 34.2036 42.5359C33.7454 42.5359 33.291 42.5461 32.8383 42.5654C32.4281 42.5829 32.0207 42.6087 31.6151 42.6428C31.1302 42.6834 30.6499 42.7341 30.1715 42.7968C29.5299 42.8807 28.8939 42.983 28.2652 43.1056C28.2034 43.1176 28.1426 43.1296 28.0808 43.1416C28.0218 43.1535 27.9628 43.1655 27.9038 43.1784C27.843 43.1904 27.7831 43.2033 27.7232 43.2153C27.5904 43.2439 27.4577 43.2725 27.3249 43.3038C27.3249 43.3038 27.3249 43.3038 27.324 43.3038C27.0254 43.3711 26.7294 43.443 26.4345 43.5204H26.4335C26.3349 43.5453 26.2363 43.572 26.1386 43.5979C26.051 43.6218 25.9643 43.6449 25.8768 43.6698C25.5403 43.7638 25.2066 43.8624 24.8757 43.9675C24.8757 43.9675 24.8747 43.9675 24.8738 43.9675C24.3189 44.1426 23.7704 44.3325 23.2293 44.539C23.2293 44.539 23.2275 44.539 23.2275 44.54C23.1675 44.563 23.1085 44.5851 23.0495 44.6082C22.8716 44.6773 22.6937 44.7474 22.5186 44.8193C22.3803 44.8755 22.243 44.9336 22.1056 44.9916C22.0494 45.0156 21.9931 45.0396 21.9369 45.0635C21.8097 45.1189 21.6816 45.1751 21.5544 45.2322C20.7625 45.5881 19.9882 45.9752 19.2332 46.3937C18.8405 46.6113 18.4534 46.8371 18.0717 47.0703C17.62 47.3469 17.1766 47.6345 16.7406 47.9332C16.1248 48.3554 15.5238 48.7997 14.9412 49.2643C14.7744 49.397 14.6084 49.5325 14.4444 49.669C14.3079 49.7814 14.1733 49.8957 14.0397 50.011C13.4516 50.517 12.8837 51.0443 12.3352 51.5919C11.7877 52.1394 11.2595 52.7082 10.7543 53.2963C10.6391 53.43 10.5248 53.5646 10.4123 53.701C10.275 53.8651 10.1404 54.031 10.0076 54.1979C9.54213 54.7814 9.09781 55.3815 8.67654 55.9972L7.99163 55.3123L3.95867 51.2794L3.75587 51.0766L1.94173 49.2624L0.500922 47.8216L0.5 47.8235Z" fill="#010101"/>
<path d="M21.4459 3L10.5371 3L10.5371 22.1066H21.4459V3Z" fill="#010101"/>
<path d="M57.8697 3L46.9609 3V22.1066H57.8697V3Z" fill="#010101"/>
</svg>
