<svg width="25" height="24" viewBox="0 0 25 24" fill="none" xmlns="http://www.w3.org/2000/svg">
<path fill-rule="evenodd" clip-rule="evenodd" d="M8.85703 22.7472L9.2249 20.332L8.40541 20.3122H4.49219L7.21174 2.48952C7.22021 2.43555 7.2476 2.38545 7.2876 2.34981C7.3278 2.31417 7.37903 2.29462 7.43262 2.29462H14.0309C16.2216 2.29462 17.7333 2.76568 18.5225 3.69558C18.8925 4.13181 19.1282 4.5878 19.2423 5.08941C19.3619 5.61587 19.3638 6.24476 19.2472 7.01194L19.2387 7.06775V7.55938L19.6087 7.77607C19.9203 7.94694 20.1679 8.14245 20.3579 8.36627C20.6743 8.73937 20.8791 9.21348 20.9656 9.77538C21.055 10.3534 21.0255 11.0413 20.8791 11.8201C20.7102 12.7158 20.4373 13.496 20.0686 14.1343C19.7297 14.7224 19.2978 15.2104 18.7849 15.5884C18.2953 15.9476 17.7136 16.2203 17.0559 16.3949C16.4185 16.5663 15.6918 16.6529 14.8947 16.6529H14.3813C14.0142 16.6529 13.6575 16.7896 13.3775 17.0346C13.0968 17.2846 12.9111 17.6264 12.8542 18.0001L12.8154 18.2176L12.1653 22.4747L12.136 22.6309C12.1281 22.6804 12.1147 22.705 12.095 22.7217C12.0775 22.737 12.0522 22.7472 12.0276 22.7472H8.85703Z" fill="#28356A"/>
<path fill-rule="evenodd" clip-rule="evenodd" d="M19.9595 7.12451C19.94 7.25465 19.9173 7.38764 19.8921 7.52429C19.0219 12.142 16.0449 13.7373 12.2428 13.7373H10.3068C9.84182 13.7373 9.44991 14.0861 9.3776 14.5603L8.1057 22.899C8.0586 23.2104 8.29072 23.4909 8.59456 23.4909H12.0282C12.4347 23.4909 12.7801 23.1856 12.8441 22.7711L12.8778 22.5909L13.5243 18.3505L13.5659 18.118C13.6291 17.7021 13.9753 17.3966 14.3818 17.3966H14.8953C18.222 17.3966 20.8263 16.0007 21.5874 11.961C21.9052 10.2735 21.7407 8.86436 20.8994 7.87336C20.6448 7.5746 20.3289 7.32654 19.9595 7.12451Z" fill="#298FC2"/>
<path fill-rule="evenodd" clip-rule="evenodd" d="M19.0487 6.74943C18.9157 6.70931 18.7785 6.67306 18.6379 6.64027C18.4964 6.6083 18.3516 6.57999 18.2024 6.55514C17.6804 6.46798 17.1084 6.42664 16.4958 6.42664H11.3241C11.1966 6.42664 11.0756 6.45637 10.9675 6.51014C10.7288 6.62866 10.5517 6.86206 10.5088 7.14779L9.40848 14.3503L9.37695 14.5603C9.44927 14.0862 9.84118 13.7373 10.3062 13.7373H12.2421C16.0442 13.7373 19.0213 12.1413 19.8914 7.52435C19.9174 7.3877 19.9393 7.25471 19.9588 7.12457C19.7387 7.0038 19.5003 6.90055 19.2436 6.81257C19.1801 6.79078 19.1147 6.7698 19.0487 6.74943Z" fill="#22284F"/>
<path fill-rule="evenodd" clip-rule="evenodd" d="M10.5091 7.14779C10.552 6.86205 10.7292 6.62866 10.9678 6.51095C11.0767 6.45698 11.1969 6.42725 11.3244 6.42725H16.4961C17.1087 6.42725 17.6807 6.46879 18.2027 6.55596C18.3519 6.5806 18.4967 6.60911 18.6382 6.64109C18.7788 6.67367 18.916 6.71013 19.049 6.75004C19.115 6.77041 19.1804 6.79159 19.2445 6.81257C19.5012 6.90055 19.7398 7.00461 19.9599 7.12457C20.2188 5.41812 19.9577 4.25625 19.0652 3.20416C18.0809 2.04575 16.3048 1.55005 14.0319 1.55005H7.43345C6.96922 1.55005 6.57317 1.89891 6.50145 2.37384L3.75313 20.3798C3.69894 20.736 3.96475 21.0574 4.31233 21.0574H8.38594L10.5091 7.14779Z" fill="#28356A"/>
</svg>
