<svg width="43" height="24" viewBox="0 0 43 24" fill="none" xmlns="http://www.w3.org/2000/svg">
<path fill-rule="evenodd" clip-rule="evenodd" d="M8.17471 5.05683C7.68246 5.64333 6.89488 6.10592 6.10729 6.03984C6.00884 5.24683 6.39443 4.40425 6.84565 3.88384C7.33789 3.28083 8.19932 2.85128 8.89666 2.81824C8.9787 3.64429 8.65875 4.45382 8.17471 5.05683ZM8.88793 6.19678C8.19408 6.15657 7.56097 6.40688 7.04959 6.60907C6.7205 6.73918 6.44183 6.84936 6.22982 6.84936C5.9919 6.84936 5.70172 6.73329 5.37591 6.60297C4.949 6.4322 4.46092 6.23697 3.94909 6.24634C2.77591 6.26286 1.68477 6.93196 1.08588 7.99757C-0.144728 10.1288 0.765922 13.2843 1.95551 15.019C2.538 15.8781 3.23534 16.8198 4.15419 16.7867C4.55843 16.7714 4.84922 16.6471 5.15016 16.5186C5.49662 16.3705 5.85653 16.2168 6.41851 16.2168C6.96101 16.2168 7.30518 16.3665 7.63556 16.5103C7.94971 16.647 8.25139 16.7783 8.69924 16.7702C9.6509 16.7537 10.2498 15.9111 10.8323 15.052C11.4609 14.13 11.7371 13.2302 11.779 13.0936L11.784 13.0778C11.783 13.0768 11.7752 13.0732 11.7615 13.0669C11.5513 12.97 9.94525 12.2297 9.92984 10.2444C9.91438 8.57809 11.2038 7.73383 11.4067 7.60093C11.4191 7.59284 11.4274 7.58739 11.4312 7.58454C10.6108 6.36199 9.33095 6.22982 8.88793 6.19678ZM15.4766 16.6794V3.80127H20.2759C22.7536 3.80127 24.4846 5.51945 24.4846 8.03064C24.4846 10.5418 22.7207 12.2765 20.2103 12.2765H17.4619V16.6794H15.4766ZM17.4611 5.48637H19.75C21.4728 5.48637 22.4573 6.41155 22.4573 8.03887C22.4573 9.66618 21.4728 10.5996 19.7418 10.5996H17.4611V5.48637ZM31.0394 15.1346C30.5143 16.1424 29.3575 16.7785 28.1105 16.7785C26.2646 16.7785 24.9766 15.6716 24.9766 14.003C24.9766 12.3509 26.2236 11.4009 28.5289 11.2605L31.0065 11.1118V10.4014C31.0065 9.3523 30.3256 8.78232 29.1114 8.78232C28.1105 8.78232 27.3804 9.30273 27.2327 10.0957H25.4442C25.5016 8.42712 27.0604 7.21283 29.1688 7.21283C31.4414 7.21283 32.9181 8.4106 32.9181 10.2692V16.6794H31.0804V15.1346H31.0394ZM28.6433 15.2503C27.585 15.2503 26.9122 14.7381 26.9122 13.9534C26.9122 13.1439 27.5604 12.673 28.7992 12.5987L31.0061 12.4582V13.1852C31.0061 14.3912 29.9888 15.2503 28.6433 15.2503ZM39.0139 17.1832C38.2181 19.4384 37.3074 20.1818 35.3713 20.1818C35.2236 20.1818 34.7314 20.1653 34.6165 20.1322V18.5875C34.7396 18.6041 35.0431 18.6206 35.199 18.6206C36.0768 18.6206 36.5691 18.2488 36.8726 17.2824L37.0531 16.7124L33.6895 7.33673H35.7651L38.1032 14.9446H38.1443L40.4824 7.33673H42.5006L39.0139 17.1832Z" fill="white"/>
</svg>
