<svg width="66" height="62" viewBox="0 0 66 62" fill="none" xmlns="http://www.w3.org/2000/svg">
<path d="M63.4756 43.8425H51.5409L55.3819 53.5827L45.6035 49.3355L45.6008 60.2234L36.8119 51.4346L32.453 61.4665L28.6637 51.8626L21.3797 59.1466V48.1824L9.83748 52.7349L14.1856 42.7248H3.54298L10.9661 35.3017L0.039978 30.5583L10.4999 26.4338L2.56705 18.5009H14.5127L10.6717 8.76612L20.4528 13.0133V2.12814L29.2226 10.8979L33.5897 0.849609L37.3817 10.4645L44.6767 3.17222V14.1556L56.1916 9.61393L51.8462 19.6186H62.4861L55.0684 27.0362L66 31.7851L55.5455 35.9096L63.4756 43.8425Z" fill="#F54E80"/>
<path d="M38.2 19.6H42.456L28.056 42H23.8L38.2 19.6ZM20.6 24.944C20.6 23.3013 21.0907 22 22.072 21.04C23.0533 20.08 24.3547 19.6 25.976 19.6C27.576 19.6 28.856 20.08 29.816 21.04C30.7973 22 31.288 23.3013 31.288 24.944C31.288 26.5867 30.7973 27.888 29.816 28.848C28.856 29.808 27.576 30.288 25.976 30.288C24.3547 30.288 23.0533 29.808 22.072 28.848C21.0907 27.888 20.6 26.5867 20.6 24.944ZM23.736 24.944C23.736 25.904 23.9387 26.608 24.344 27.056C24.7707 27.4827 25.3147 27.696 25.976 27.696C26.616 27.696 27.1387 27.4827 27.544 27.056C27.9707 26.608 28.184 25.904 28.184 24.944C28.184 24.0053 27.9707 23.312 27.544 22.864C27.1387 22.416 26.616 22.192 25.976 22.192C25.3147 22.192 24.7707 22.416 24.344 22.864C23.9387 23.312 23.736 24.0053 23.736 24.944ZM34.84 36.624C34.84 35.0027 35.3307 33.712 36.312 32.752C37.2933 31.792 38.584 31.312 40.184 31.312C41.784 31.312 43.0747 31.792 44.056 32.752C45.0373 33.712 45.528 35.0027 45.528 36.624C45.528 38.2667 45.0373 39.5787 44.056 40.56C43.0747 41.52 41.784 42 40.184 42C38.5627 42 37.2613 41.52 36.28 40.56C35.32 39.5787 34.84 38.2667 34.84 36.624ZM37.944 36.624C37.944 37.6053 38.1467 38.32 38.552 38.768C38.9787 39.1947 39.5227 39.408 40.184 39.408C40.8453 39.408 41.3787 39.1947 41.784 38.768C42.1893 38.32 42.392 37.6053 42.392 36.624C42.392 35.6853 42.1787 35.0027 41.752 34.576C41.3467 34.128 40.824 33.904 40.184 33.904C39.5227 33.904 38.9787 34.128 38.552 34.576C38.1467 35.0027 37.944 35.6853 37.944 36.624Z" fill="white"/>
</svg>
