<svg width="66" height="60" viewBox="0 0 66 60" fill="none" xmlns="http://www.w3.org/2000/svg">
<path d="M65.7802 43.3423C65.3268 43.9378 64.8581 44.5198 64.3742 45.0883C64.2545 45.2296 64.134 45.369 64.0117 45.5084C63.9055 45.6299 63.7985 45.7513 63.6905 45.871C63.2731 46.3378 62.8449 46.7948 62.4059 47.2419C62.3079 47.3427 62.2089 47.4425 62.1091 47.5424C62.0101 47.6413 61.9103 47.7403 61.8086 47.8392C61.3615 48.2773 60.9045 48.7064 60.4377 49.1238C60.3171 49.2317 60.1966 49.3379 60.0751 49.4449C59.9357 49.5664 59.7954 49.6878 59.6541 49.8075C59.0847 50.2914 58.5027 50.7601 57.9081 51.2135C57.4466 51.5643 56.9779 51.9071 56.502 52.239C56.2061 52.4459 55.9074 52.6483 55.6061 52.8471C55.3173 53.0378 55.0258 53.224 54.7317 53.4076C54.5509 53.52 54.3683 53.6325 54.1847 53.7422C53.8474 53.9455 53.5065 54.1443 53.1628 54.3386C52.9649 54.4502 52.7661 54.5599 52.5664 54.6688C51.9457 55.0052 51.316 55.3263 50.6773 55.6322C50.6422 55.6493 50.6071 55.6655 50.5712 55.6826C49.9334 55.9848 49.2866 56.2718 48.6308 56.5417C48.3618 56.6523 48.091 56.7603 47.8194 56.8664C47.0655 57.1588 46.3 57.4295 45.5246 57.6778C45.3141 57.7453 45.1036 57.811 44.8922 57.8748C44.8265 57.8946 44.7617 57.9153 44.6952 57.9342C44.5746 57.9702 44.4541 58.0053 44.3335 58.0403C43.4897 58.2832 42.6352 58.5 41.7707 58.6889C41.436 58.7627 41.0987 58.832 40.7604 58.8976C40.272 58.9912 39.7799 59.0776 39.2843 59.154C38.9991 59.1981 38.7121 59.2395 38.4252 59.2782C37.8944 59.3492 37.361 59.4104 36.8248 59.4599C36.1888 59.5201 35.5492 59.566 34.906 59.5966C34.8755 59.5984 34.844 59.6002 34.8134 59.6011C34.1756 59.6308 33.5351 59.6452 32.8901 59.6452C32.2451 59.6452 31.6046 59.6308 30.9668 59.6011C30.9362 59.6002 30.9047 59.5984 30.8742 59.5966C30.231 59.566 29.5905 59.5201 28.9554 59.4599C28.4192 59.4095 27.8858 59.3483 27.355 59.2782C27.0681 59.2395 26.7811 59.1981 26.496 59.154C26.0012 59.0776 25.5082 58.9912 25.0198 58.8976C24.7193 58.8392 24.4197 58.7789 24.1229 58.7141C24.0851 58.706 24.0473 58.6979 24.0095 58.6889C23.1451 58.5 22.2905 58.2832 21.4467 58.0403C21.3252 58.0062 21.2056 57.9702 21.085 57.9342C21.0194 57.9153 20.9537 57.8946 20.888 57.8748C20.6766 57.811 20.4652 57.7453 20.2556 57.6778C19.4802 57.4295 18.7156 57.1588 17.9608 56.8664C17.6892 56.7603 17.4184 56.6523 17.1494 56.5417C16.4945 56.2718 15.8468 55.9848 15.209 55.6826C15.174 55.6655 15.1389 55.6484 15.1029 55.6322C14.4642 55.3263 13.8336 55.0052 13.2138 54.6688C13.0141 54.5599 12.8153 54.4502 12.6174 54.3386C12.2737 54.1452 11.9328 53.9464 11.5955 53.7422C11.1151 53.4525 10.6419 53.1548 10.1741 52.8462C9.87279 52.6474 9.57413 52.445 9.27817 52.2381C8.8023 51.9062 8.33272 51.5643 7.87214 51.2126C7.27753 50.7592 6.6955 50.2905 6.12608 49.8066C5.98574 49.6869 5.84541 49.5655 5.70508 49.444C5.58363 49.3379 5.46309 49.2308 5.34255 49.1229C4.87567 48.7055 4.41869 48.2764 3.9716 47.8383C3.87085 47.7403 3.771 47.6413 3.67115 47.5415C3.5722 47.4425 3.47324 47.3427 3.37429 47.241C2.9353 46.7939 2.5071 46.3369 2.0897 45.8701C1.98175 45.7504 1.8756 45.629 1.76856 45.5075C1.64621 45.3681 1.52567 45.2287 1.40603 45.0874C0.92206 44.518 0.452484 43.936 0 43.3414L5.34165 37.9997L7.97829 35.3631C8.3903 35.964 8.82389 36.5505 9.27727 37.119C9.40681 37.2828 9.53905 37.4438 9.67308 37.6048C9.78373 37.7379 9.89528 37.8693 10.0077 38.0006C10.5016 38.5745 11.0161 39.1287 11.5505 39.663C12.0848 40.1974 12.6399 40.7119 13.2129 41.2058C13.3433 41.3182 13.4756 41.4298 13.6087 41.5404C13.7688 41.6745 13.9308 41.8058 14.0945 41.9362C14.663 42.3896 15.2486 42.8232 15.8504 43.2352C16.275 43.5267 16.7086 43.8073 17.1494 44.0772C17.5227 44.3057 17.9006 44.5261 18.2829 44.7375C19.0196 45.1459 19.7753 45.5246 20.548 45.871C20.6712 45.9267 20.7963 45.9816 20.9204 46.0347C20.9753 46.059 21.0293 46.0815 21.0841 46.1048C21.1507 46.1336 21.2182 46.1615 21.2847 46.1903L21.2865 46.1912C21.3531 46.22 21.4206 46.247 21.488 46.2749C21.5573 46.3027 21.6266 46.3306 21.6967 46.3585C21.6967 46.3585 21.6976 46.3594 21.6985 46.3594C21.7219 46.3684 21.7453 46.3783 21.7687 46.3873C21.8542 46.4215 21.9396 46.4548 22.026 46.4881C22.0575 46.5007 22.0899 46.5132 22.1213 46.5249C22.1213 46.5249 22.1216 46.5249 22.1222 46.5249C22.1933 46.5519 22.2635 46.5789 22.3345 46.605C22.4056 46.6311 22.4767 46.6581 22.5477 46.6842C22.6017 46.704 22.6566 46.7237 22.7115 46.7426C22.7789 46.7669 22.8464 46.7912 22.9139 46.8146C23.0074 46.8479 23.101 46.8803 23.1945 46.9118C23.3906 46.9783 23.5876 47.0431 23.7864 47.1052C23.7864 47.1052 23.7873 47.1052 23.7882 47.1052C23.8629 47.1286 23.9367 47.1519 24.0113 47.1744C24.05 47.1861 24.0878 47.1978 24.1265 47.2095C24.2012 47.232 24.2749 47.2545 24.3487 47.2761C24.4125 47.295 24.4773 47.3139 24.5412 47.3319C24.5592 47.3373 24.5772 47.3418 24.5952 47.3471C24.6608 47.366 24.7274 47.3849 24.794 47.4029C24.8695 47.4245 24.9442 47.4443 25.0198 47.465H25.0207C25.1484 47.4992 25.2761 47.5325 25.4048 47.5657C25.501 47.59 25.5973 47.6143 25.6935 47.6377C25.7898 47.6611 25.886 47.6845 25.9832 47.707C26.048 47.7214 26.1127 47.7367 26.1784 47.752C26.307 47.7816 26.4375 47.8104 26.567 47.8383C26.6831 47.8626 26.7991 47.8869 26.9152 47.9103C26.9745 47.922 27.0348 47.9337 27.0942 47.9454C27.7077 48.065 28.3284 48.1658 28.9545 48.2476C29.4205 48.3079 29.89 48.3583 30.3632 48.3978C30.759 48.4311 31.1575 48.4563 31.5569 48.4734C31.9995 48.4923 32.443 48.5022 32.8901 48.5022C33.3372 48.5022 33.7807 48.4923 34.2224 48.4734C34.6227 48.4563 35.0203 48.4311 35.4161 48.3978C35.8893 48.3583 36.3579 48.3088 36.8248 48.2476C37.4509 48.1658 38.0716 48.0659 38.6851 47.9463C38.7454 47.9346 38.8048 47.9229 38.8651 47.9112C38.9226 47.8995 38.9802 47.8878 39.0378 47.8752C39.0971 47.8635 39.1556 47.8509 39.2141 47.8392C39.3436 47.8113 39.4732 47.7834 39.6027 47.7529C39.6027 47.7529 39.6027 47.7529 39.6036 47.7529C39.8951 47.6872 40.1838 47.617 40.4717 47.5415H40.4726C40.5688 47.5172 40.6651 47.4911 40.7604 47.4659C40.8459 47.4425 40.9305 47.42 41.0159 47.3957C41.3443 47.304 41.6699 47.2077 41.9929 47.1052C41.9929 47.1052 41.9938 47.1052 41.9947 47.1052C42.5362 46.9342 43.0714 46.7489 43.5995 46.5474C43.5995 46.5474 43.6013 46.5474 43.6013 46.5465C43.6598 46.524 43.7173 46.5025 43.7749 46.48C43.9485 46.4125 44.1221 46.3441 44.2931 46.274C44.428 46.2191 44.562 46.1624 44.6961 46.1057C44.7509 46.0824 44.8058 46.059 44.8607 46.0356C44.9848 45.9816 45.1099 45.9267 45.234 45.871C46.0067 45.5237 46.7624 45.1459 47.4991 44.7375C47.8823 44.5252 48.2602 44.3048 48.6326 44.0772C49.0734 43.8073 49.5061 43.5267 49.9316 43.2352C50.5325 42.8232 51.119 42.3896 51.6875 41.9362C51.8504 41.8067 52.0123 41.6745 52.1724 41.5413C52.3055 41.4316 52.4369 41.32 52.5673 41.2076C53.1412 40.7137 53.6954 40.1992 54.2306 39.6648C54.765 39.1305 55.2804 38.5754 55.7734 38.0015C55.8858 37.8711 55.9974 37.7397 56.1071 37.6066C56.2412 37.4465 56.3725 37.2846 56.502 37.1217C56.9563 36.5523 57.3899 35.9667 57.801 35.3658L58.4694 36.0341L62.405 39.9698L62.6029 40.1677L64.3733 41.938L65.7793 43.3441L65.7802 43.3423Z" fill="black"/>
<path d="M63.9796 14.7328V24.6128L36.916 24.5732V14.7391L36.9277 14.7328L58.7297 1L63.6611 9.01248L54.5134 14.7328H63.9796Z" fill="black"/>
<path d="M28.8644 14.7391V24.5732L1.80078 24.6128V14.7328H11.267L2.11923 9.01248L7.05068 1L28.8527 14.7328L28.8644 14.7391Z" fill="black"/>
</svg>
