<svg width="232" height="232" viewBox="0 0 232 232" fill="none" xmlns="http://www.w3.org/2000/svg">
<path d="M223.127 161.143H181.174L194.676 195.382L160.303 180.452L160.294 218.725L129.4 187.831L114.077 223.094L100.757 189.335L75.1528 214.94V176.399L34.5803 192.402L49.8645 157.214H12.4542L38.5475 131.121L0.140625 114.447L36.9089 99.9491L9.02365 72.0639H51.0144L37.5126 37.8446L71.8948 52.7742V14.5111L102.722 45.3381L118.073 10.0168L131.402 43.8145L157.045 18.1812V56.7893L197.522 40.8248L182.247 75.9927H219.648L193.574 102.067L232 118.76L195.251 133.258L223.127 161.143Z" fill="#563CD6"/>
<path d="M108.488 160.035C98.6855 158.658 91.117 155.181 85.7824 149.606C80.5322 144.042 78.4824 136.86 79.6331 128.06L99.0265 130.786C98.8657 134.382 99.7954 137.271 101.816 139.45C103.921 141.642 107.086 143.035 111.311 143.628C115.367 144.199 118.798 143.388 121.605 141.198C124.424 138.922 126.13 135.672 126.724 131.447C127.306 127.306 126.646 123.724 124.745 120.699C122.928 117.686 120.033 115.901 116.062 115.342C112.85 114.891 110.197 115.38 108.1 116.809C106.015 118.153 104.673 119.731 104.074 121.542L85.6947 118.959L93.23 65.3423L151.284 73.5011L148.968 89.9792L108.406 84.2787L104.861 109.503L105.749 109.627C106.876 106.511 109.188 104.165 112.684 102.588C116.18 101.011 120.294 100.556 125.026 101.221C129.674 101.874 133.775 103.657 137.33 106.569C140.884 109.481 143.493 113.295 145.158 118.01C146.833 122.64 147.268 127.828 146.46 133.574C145.569 139.912 143.397 145.251 139.943 149.591C136.49 153.932 132.05 157.013 126.623 158.836C121.209 160.574 115.164 160.973 108.488 160.035Z" fill="white"/>
<path d="M163.74 106.942L163.498 102.332L160.984 106.204L150.844 121.818L132.861 116.999L128.401 115.804L131.307 119.392L143.023 133.86L132.883 149.475L130.369 153.346L134.679 151.692L152.06 145.02L163.776 159.489L166.682 163.076L166.44 158.466L165.466 139.874L182.847 133.202L187.157 131.548L182.697 130.353L164.714 125.534L163.74 106.942Z" fill="white" stroke="#563CD6" stroke-width="3"/>
</svg>
