<svg width="400" height="60" viewBox="0 0 400 60" fill="none" xmlns="http://www.w3.org/2000/svg">
<path d="M202.075 0V8.86677H211.755V0H202.075ZM202.075 12.669V44.339H211.755V12.669H202.075Z" fill="white"/>
<path d="M143.438 11.6528C133.379 11.6528 126.615 18.1131 126.615 28.4987C126.615 38.8843 133.384 45.3445 143.438 45.3445C153.492 45.3445 160.261 38.8843 160.261 28.4987C160.261 18.1131 153.492 11.6528 143.438 11.6528ZM143.438 37.1756C139.769 37.1756 136.418 34.9589 136.418 28.4987C136.418 22.0384 139.769 19.7602 143.438 19.7602C147.107 19.7602 150.458 22.1052 150.458 28.4987C150.458 34.8922 147.107 37.1756 143.438 37.1756Z" fill="white"/>
<path d="M184.935 11.7197C179.242 11.7197 175.383 15.7118 174.307 19.5089H173.928V0H164.248V44.339H173.928L173.8 37.6273H174.179C175.065 41.2397 178.166 45.355 184.489 45.355C192.713 45.355 198.468 38.515 198.468 28.7606C198.468 19.0061 193.154 11.7249 184.93 11.7249L184.935 11.7197ZM181.076 37.2425C177.218 37.2425 173.677 34.8359 173.677 28.6271C173.677 22.4184 177.218 19.8219 181.076 19.8219C184.935 19.8219 188.542 22.2901 188.542 28.6271C188.542 34.9642 185.063 37.2425 181.076 37.2425Z" fill="white"/>
<path d="M228.337 36.3548C226.313 36.3548 225.616 35.2156 225.616 33.1888V0H216.126V34.8359C216.126 41.2346 219.416 44.339 225.806 44.339H230.172V36.3599H228.337V36.3548Z" fill="white"/>
<path d="M265.59 27.2364C265.59 16.7225 258.509 11.6528 249.27 11.6528C239.528 11.6528 232.447 17.7949 232.447 28.4987C232.447 40.2184 240.733 45.3445 248.957 45.3445C257.181 45.3445 263.946 41.7321 265.211 33.9429H255.849C254.963 36.8574 252.18 37.8683 249.459 37.8683C245.79 37.8683 241.804 36.0929 241.681 30.6486H265.273C265.462 29.8277 265.59 28.7501 265.59 27.2261V27.2364ZM255.849 25.0813H241.87C242.06 21.1559 245.032 18.621 249.019 18.621C253.005 18.621 255.977 21.0276 255.849 25.0813Z" fill="white"/>
<path d="M285.877 37.1809C282.208 37.1809 278.857 34.9643 278.857 28.504C278.857 22.0438 282.208 19.7655 285.877 19.7655C288.849 19.7655 291.442 20.9714 292.139 25.3381H302.131C301.501 15.7735 294.794 11.6582 285.877 11.6582C275.818 11.6582 269.054 18.1184 269.054 28.504C269.054 38.8896 275.823 45.3499 285.877 45.3499C294.794 45.3499 301.501 41.2346 302.131 31.67H292.139C291.442 36.0418 288.849 37.1809 285.877 37.1809Z" fill="white"/>
<path d="M338.221 36.6114C336.387 36.6114 335.818 35.9802 335.818 34.2664V23.6909C335.818 16.4097 331.012 11.6582 321.209 11.6582C310.837 11.6582 305.334 16.5996 305.334 23.1881H315.393C315.393 20.4018 317.668 19.1344 320.896 19.1344C324.565 19.1344 326.143 21.4127 326.143 24.5838V25.5946L316.781 26.2925C310.012 26.8005 305.713 29.8382 305.713 35.9187C305.713 41.4296 309.131 45.1036 315.705 45.1036C322.28 45.1036 325.508 41.4296 326.395 38.0738H326.774V38.2636C326.774 42.3173 329.495 44.3441 334.742 44.3441H339.677V36.6165H338.221V36.6114ZM319.943 38.3868C316.464 38.3868 315.644 36.7397 315.644 35.031C315.644 33.3223 316.653 31.9266 320.702 31.5469L326.267 31.0389C326.267 36.0418 323.356 38.3868 319.943 38.3868Z" fill="white"/>
<path d="M361.947 12.0996C355.557 12.0996 354.169 16.7844 353.031 22.1722H352.713L352.965 12.6692H343.285V44.3391H352.965V32.9375C352.965 22.6135 356.762 22.1055 361.947 22.1055H364.73V12.351C363.91 12.2228 363.023 12.0996 361.947 12.0996Z" fill="white"/>
<path d="M400 27.2364C400 16.7225 392.918 11.6528 383.679 11.6528C373.938 11.6528 366.856 17.7949 366.856 28.4987C366.856 40.2184 375.142 45.3445 383.367 45.3445C391.591 45.3445 398.355 41.7321 399.621 33.9429H390.259C389.372 36.8574 386.59 37.8683 383.869 37.8683C380.2 37.8683 376.213 36.0929 376.09 30.6486H399.682C399.872 29.8277 400 28.7501 400 27.2261V27.2364ZM390.259 25.0813H376.28C376.469 21.1559 379.441 18.621 383.428 18.621C387.415 18.621 390.387 21.0276 390.259 25.0813Z" fill="white"/>
<path d="M123.572 44.3336H115.368L114.476 32.0084L114.092 26.6925V26.5642H113.713L113.672 26.7233L113.2 28.6167L109.29 44.3285H100.487L96.5771 28.6116L96.1057 26.7233L96.0647 26.5642H95.6855V26.6873L95.3011 32.0033L94.4095 44.3285H86.2056L87.3944 29.4377L88.8138 11.6426H100.272L100.482 12.4841L104.653 29.253L104.694 29.412H105.073L105.114 29.253L109.29 12.4533L109.49 11.6426H120.948L122.368 29.4377L123.556 44.3285L123.572 44.3336Z" fill="white"/>
<path d="M64.6788 44.3037C64.2483 44.8681 63.8076 45.4223 63.3465 45.9611C63.2337 46.0945 63.121 46.2279 63.0031 46.3613C62.9006 46.4742 62.8033 46.5922 62.7008 46.7051C62.3062 47.1464 61.9014 47.5825 61.4863 48.0033C61.3941 48.1008 61.3019 48.1931 61.2045 48.2855C61.1123 48.3779 61.0149 48.4754 60.9227 48.5677C60.4974 48.9834 60.0669 49.3887 59.6262 49.7838C59.5135 49.8865 59.3956 49.9891 59.2829 50.0866C59.1497 50.1995 59.0164 50.3175 58.8832 50.4304C58.3452 50.887 57.7917 51.3335 57.2281 51.7645C56.7925 52.098 56.3467 52.4213 55.8958 52.7343C55.6139 52.9293 55.3321 53.1243 55.0451 53.309C54.7736 53.4886 54.4968 53.6682 54.215 53.8426C54.0459 53.9504 53.8717 54.0581 53.6975 54.1608C53.3798 54.3558 53.0569 54.5405 52.729 54.7252C52.5394 54.833 52.3549 54.9356 52.1653 55.0382C51.576 55.3563 50.9816 55.6642 50.3769 55.9516C50.3411 55.967 50.3103 55.9824 50.2744 55.9978C49.6698 56.2851 49.06 56.5571 48.44 56.8136C48.1837 56.9162 47.9275 57.0189 47.6713 57.1215C46.959 57.3986 46.2314 57.6551 45.4986 57.8912C45.2988 57.9528 45.0989 58.0195 44.8991 58.0759C44.8376 58.0964 44.7761 58.1118 44.7146 58.1323C44.6019 58.1683 44.484 58.199 44.3713 58.235C43.5719 58.4659 42.7623 58.6711 41.9424 58.8507C41.6247 58.9226 41.307 58.9841 40.9842 59.0508C40.523 59.1381 40.0567 59.2202 39.5852 59.292C39.3136 59.3331 39.0421 59.3741 38.7705 59.41C38.2683 59.4767 37.761 59.5332 37.2537 59.5845C36.6541 59.6409 36.0444 59.6871 35.4346 59.7128C35.4038 59.7128 35.3782 59.7128 35.3475 59.7128C34.7428 59.7384 34.1381 59.7538 33.5283 59.7538C32.9186 59.7538 32.3088 59.7384 31.7092 59.7128C31.6785 59.7128 31.6529 59.7128 31.6221 59.7128C31.0123 59.682 30.4077 59.6409 29.803 59.5845C29.2957 59.5383 28.7884 59.4767 28.2862 59.41C28.0146 59.3741 27.743 59.3331 27.4715 59.292C27.0052 59.2202 26.5388 59.1381 26.0725 59.0508C25.7856 58.9944 25.5037 58.9379 25.2219 58.8764C25.186 58.8661 25.1502 58.861 25.1143 58.8507C24.2944 58.6711 23.4848 58.4659 22.6854 58.235C22.5727 58.2042 22.4548 58.1683 22.3421 58.1323C22.2806 58.1118 22.2191 58.0964 22.1576 58.0759C21.9578 58.0143 21.7579 57.9528 21.5581 57.8912C20.8253 57.6551 20.0976 57.3986 19.3854 57.1215C19.1292 57.0189 18.8729 56.9162 18.6167 56.8136C17.9967 56.5571 17.3818 56.2851 16.7822 55.9978C16.7464 55.9824 16.7156 55.967 16.6798 55.9516C16.0751 55.6642 15.4756 55.3563 14.8914 55.0382C14.7018 54.9356 14.5122 54.833 14.3277 54.7252C13.9998 54.5405 13.6769 54.3506 13.3592 54.1608C12.9032 53.8888 12.4574 53.6015 12.0116 53.309C11.7246 53.1191 11.4428 52.9293 11.1609 52.7343C10.71 52.4213 10.2642 52.0929 9.82861 51.7645C9.26494 51.3335 8.71665 50.8922 8.17347 50.4304C8.04024 50.3175 7.90701 50.1995 7.77378 50.0866C7.66105 49.9839 7.54319 49.8865 7.43046 49.7838C6.98977 49.3887 6.55421 48.9834 6.13402 48.5677C6.03666 48.4754 5.94442 48.383 5.85218 48.2855C5.75995 48.1931 5.66258 48.0957 5.57035 48.0033C5.15528 47.5774 4.75046 47.1464 4.3559 46.7051C4.25341 46.5922 4.15093 46.4742 4.05356 46.3613C3.93571 46.2279 3.82297 46.0945 3.71024 45.9611C3.25418 45.4223 2.80837 44.8681 2.37793 44.3037L7.43558 39.2392L9.9311 36.7402C10.3205 37.3098 10.7305 37.864 11.1609 38.4028C11.2839 38.5567 11.4069 38.7106 11.535 38.8646C11.6375 38.9929 11.7451 39.116 11.8527 39.2392C12.319 39.7831 12.8058 40.3064 13.3131 40.8144C13.8204 41.3224 14.3431 41.8099 14.8863 42.2768C15.0092 42.3846 15.1374 42.4872 15.2603 42.595C15.4141 42.7233 15.5678 42.8464 15.7215 42.9696C16.2596 43.4006 16.813 43.8111 17.3818 44.2011C17.7866 44.4781 18.1965 44.745 18.6116 45.0015C18.9652 45.217 19.3239 45.4274 19.6877 45.6275C20.3846 46.0175 21.102 46.3716 21.8348 46.7051C21.9526 46.7564 22.0705 46.8077 22.1883 46.859C22.2396 46.8796 22.2908 46.9052 22.3421 46.9257C22.4036 46.9514 22.4702 46.977 22.5317 47.0078C22.5932 47.0335 22.6598 47.0591 22.7213 47.0848C22.7879 47.1105 22.8545 47.1361 22.9211 47.1618C22.9416 47.172 22.9672 47.1772 22.9877 47.1874C23.0697 47.2182 23.1517 47.2541 23.2337 47.2849C23.2644 47.2952 23.2952 47.3106 23.3259 47.3208C23.3925 47.3465 23.4592 47.3722 23.5258 47.3978C23.5924 47.4235 23.659 47.4491 23.7256 47.4748C23.7769 47.4953 23.8281 47.5107 23.8794 47.5312C23.9408 47.5569 24.0075 47.5774 24.0689 47.5979C24.1561 47.6287 24.2483 47.6595 24.3354 47.6903C24.5199 47.7519 24.7095 47.8134 24.894 47.875C24.9657 47.8955 25.0323 47.9212 25.1041 47.9417C25.1399 47.952 25.1758 47.9622 25.2117 47.9725C25.2834 47.993 25.35 48.0136 25.4218 48.0341C25.4832 48.0546 25.5447 48.07 25.6062 48.0854C25.6216 48.0854 25.6421 48.0957 25.6575 48.1008C25.719 48.1162 25.7805 48.1367 25.8471 48.1521C25.9188 48.1726 25.9905 48.1931 26.0623 48.2085C26.1853 48.2393 26.3031 48.2752 26.4261 48.306C26.5183 48.3317 26.6106 48.3522 26.6977 48.3727C26.7848 48.3933 26.8822 48.4189 26.9744 48.4394C27.0359 48.4548 27.0974 48.4702 27.1589 48.4805C27.2819 48.5113 27.4048 48.5369 27.5278 48.5626C27.6354 48.5883 27.7482 48.6088 27.8558 48.6293C27.9121 48.6396 27.9685 48.6498 28.0249 48.6601C28.6039 48.773 29.1932 48.8705 29.7876 48.9474C30.2283 49.0039 30.6741 49.0501 31.1199 49.0911C31.494 49.1219 31.8732 49.1476 32.2524 49.163C32.6726 49.1835 33.0928 49.1886 33.513 49.1886C33.9383 49.1886 34.3585 49.1783 34.7735 49.163C35.1527 49.1476 35.5268 49.1219 35.906 49.0911C36.3518 49.0552 36.7976 49.009 37.2383 48.9474C37.8327 48.8705 38.4169 48.773 39.0011 48.6601C39.0574 48.6498 39.1138 48.6396 39.1702 48.6242C39.2265 48.6139 39.2778 48.6036 39.3341 48.5883C39.3905 48.578 39.4469 48.5677 39.5032 48.5523C39.6262 48.5267 39.7492 48.501 39.8722 48.4702C40.1489 48.4087 40.4205 48.342 40.6921 48.2701C40.7843 48.2445 40.8765 48.2239 40.9637 48.1983C41.0456 48.1778 41.1225 48.1521 41.2045 48.1316C41.5171 48.0443 41.8245 47.952 42.132 47.8545C42.6444 47.6903 43.1517 47.5158 43.6539 47.326C43.7103 47.3054 43.7615 47.2849 43.8179 47.2644C43.9818 47.2028 44.1458 47.1361 44.3098 47.0694C44.4379 47.0181 44.566 46.9617 44.689 46.9103C44.7402 46.8898 44.7915 46.8642 44.8427 46.8436C44.9606 46.7923 45.0784 46.741 45.1963 46.6897C45.9291 46.3613 46.6413 46.0021 47.3382 45.6173C47.7021 45.4172 48.0608 45.2068 48.4092 44.9913C48.8243 44.7347 49.2342 44.4679 49.639 44.1908C50.2078 43.8008 50.7612 43.3903 51.2993 42.9593C51.453 42.8361 51.6068 42.713 51.7605 42.5847C51.8886 42.4821 52.0116 42.3743 52.1346 42.2666C52.6777 41.7996 53.2055 41.3122 53.7077 40.8042C54.2099 40.2962 54.7018 39.7728 55.1681 39.2289C55.2757 39.1057 55.3782 38.9826 55.4858 38.8543C55.6139 38.7004 55.7369 38.5464 55.8599 38.3925C56.2903 37.8537 56.7003 37.2995 57.0897 36.73L57.7251 37.3663L61.4505 41.0967L61.6401 41.2865L63.3157 42.9644L64.648 44.2985L64.6788 44.3037Z" fill="white"/>
<path d="M67.0715 20.5615L59.6208 28.0224L46.5796 14.9634L33.5383 28.0224L20.4919 14.9634L7.45068 28.0224L0 20.5615L20.4919 0.0366211L33.5383 13.0956L46.5796 0.0366211L67.0715 20.5615Z" fill="white"/>
</svg>
