<svg width="149" height="30" viewBox="0 0 149 30" fill="none" xmlns="http://www.w3.org/2000/svg">
<g clip-path="url(#clip0_28_4905)">
<path d="M52.425 25.6125C52.425 26.7375 51.525 27.7125 50.325 27.7125C49.2 27.7125 48.225 26.8125 48.225 25.6125V16.9125H38.025V25.5375C38.025 26.6625 37.125 27.6375 35.925 27.6375C34.8 27.6375 33.825 26.7375 33.825 25.5375V5.06241C33.825 3.93741 34.725 2.9624 35.925 2.9624C37.05 2.9624 38.025 3.86241 38.025 5.06241V13.1625H48.3V5.06241C48.3 3.93741 49.2 2.9624 50.4 2.9624C51.525 2.9624 52.5 3.86241 52.5 5.06241L52.425 25.6125Z" fill="#009CD3"/>
<path d="M63.45 10.6125C69.525 10.6125 70.65 15.2626 70.65 17.7376C70.65 19.0876 70.65 20.5876 68.475 20.5876H59.55C59.55 23.1376 61.35 24.3376 63.75 24.3376C65.325 24.3376 66.45 23.8126 67.275 23.2126C67.65 22.9876 67.95 22.8376 68.4 22.8376C69.2999 22.8376 70.05 23.5876 70.05 24.4876C70.05 25.0876 69.75 25.5376 69.45 25.8376C68.85 26.4376 66.975 27.7876 63.675 27.7876C58.725 27.7876 55.575 25.0876 55.575 19.0876C55.65 13.6876 58.575 10.6125 63.45 10.6125ZM59.625 17.3626H66.75C66.75 15.6376 65.775 13.9126 63.45 13.9126C61.35 13.9126 59.85 15.1126 59.625 17.3626Z" fill="#009CD3"/>
<path d="M76.95 12.7874V21.1125C76.95 22.7625 77.55 24.3375 80.175 24.3375C82.8 24.3375 83.4 22.7625 83.4 21.1125V12.7874C83.4 11.7374 84.225 10.8374 85.35 10.8374C86.4 10.8374 87.3 11.6624 87.3 12.7874V21.1125C87.3 24.6375 85.95 27.8625 80.25 27.8625C74.475 27.8625 73.125 24.6375 73.125 21.1125V12.7874C73.125 11.7374 73.95 10.8374 75.075 10.8374C76.125 10.8374 76.95 11.6624 76.95 12.7874Z" fill="#009CD3"/>
<path d="M94.5749 12.9376C95.2499 11.5126 96.9749 10.6125 98.4749 10.6125C99.4499 10.6125 100.275 11.4376 100.275 12.4126C100.275 13.3876 99.4499 14.2126 98.4749 14.2126C95.9999 14.2126 94.5749 15.7876 94.5749 18.1876V25.6126C94.5749 26.6626 93.7499 27.5626 92.6249 27.5626C91.5749 27.5626 90.6749 26.7376 90.6749 25.6126V12.7876C90.6749 11.7376 91.4999 10.8376 92.6249 10.8376C93.6749 10.8376 94.5749 11.6626 94.5749 12.7876V12.9376Z" fill="#009CD3"/>
<path d="M108.975 10.6125C115.05 10.6125 116.175 15.2626 116.175 17.7376C116.175 19.0876 116.175 20.5876 114 20.5876H105.075C105.075 23.1376 106.875 24.3376 109.275 24.3376C110.85 24.3376 111.975 23.8126 112.8 23.2126C113.175 22.9876 113.475 22.8376 113.925 22.8376C114.825 22.8376 115.575 23.5876 115.575 24.4876C115.575 25.0876 115.275 25.5376 114.975 25.8376C114.375 26.4376 112.5 27.7876 109.2 27.7876C104.25 27.7876 101.1 25.0876 101.1 19.0876C101.25 13.6876 104.1 10.6125 108.975 10.6125ZM105.225 17.3626H112.35C112.35 15.6376 111.375 13.9126 109.05 13.9126C106.875 13.9126 105.375 15.1126 105.225 17.3626Z" fill="#009CD3"/>
<path d="M129.375 26.8875L124.05 19.6875L122.925 20.5875V25.7625C122.925 26.8125 122.1 27.6375 120.975 27.6375C119.85 27.6375 119.025 26.8125 119.025 25.7625V3.71241C119.025 2.66241 119.85 1.8374 120.975 1.8374C122.025 1.8374 122.925 2.66241 122.925 3.71241V16.3875L129.45 11.2874C129.9 10.9124 130.275 10.8374 130.725 10.8374C131.775 10.8374 132.6 11.6624 132.6 12.7125C132.6 13.2375 132.375 13.8375 131.85 14.2125L127.125 17.8125L132.375 24.7125C132.675 25.0875 132.75 25.5375 132.75 25.8375C132.75 26.8875 131.925 27.7125 130.875 27.7125C130.2 27.6375 129.675 27.3375 129.375 26.8875Z" fill="#009CD3"/>
<path d="M137.925 15.4126C137.55 15.6376 137.25 15.7876 136.875 15.7876C135.975 15.7876 135.225 15.0376 135.225 14.1376C135.225 13.7626 135.375 13.3126 135.675 12.9376C136.65 11.8126 138.45 10.6125 141.525 10.6125C145.95 10.6125 148.65 12.7876 148.65 16.6126V25.7626C148.65 26.8126 147.825 27.6376 146.775 27.6376C145.725 27.6376 144.9 26.8126 144.9 25.7626C143.925 27.3376 142.35 27.8626 140.175 27.8626C136.65 27.8626 134.325 25.6876 134.325 22.4626C134.325 19.1626 137.025 17.4376 140.1 17.4376H144.825V16.7626C144.825 15.1126 143.625 14.0626 141.525 14.0626C139.875 14.0626 138.75 14.7376 137.925 15.4126ZM144.75 21.4126V20.4376H140.55C138.975 20.4376 138.075 21.1876 138.075 22.4626C138.075 23.8126 139.05 24.6376 141.075 24.6376C142.95 24.6376 144.75 23.4376 144.75 21.4126Z" fill="#009CD3"/>
<path d="M27.075 25.9875L22.275 21.1875C24.3 18.9375 25.5 15.9375 25.5 12.7125C25.5 5.66243 19.8 -0.0375977 12.75 -0.0375977C5.7 -0.0375977 0 5.66243 0 12.7125C0 19.7625 5.7 25.4625 12.75 25.4625C14.925 25.4625 16.95 24.9375 18.75 23.9625L23.925 29.1375C24.75 29.9626 26.175 29.9626 27 29.1375C27.9 28.2375 27.9 26.8875 27.075 25.9875ZM3.675 12.7125C3.675 7.68744 7.8 3.56242 12.825 3.56242C14.7 3.56242 16.35 4.08742 17.85 5.06243L12.6 13.5375L10.35 10.6875C10.05 10.2375 9.525 10.0125 9 10.0125C8.625 10.0125 8.25 10.1625 7.95 10.3875C7.2 10.9875 7.05 12.0375 7.65 12.7875L11.325 17.5875C11.625 18.0375 12.15 18.2625 12.675 18.2625H12.75C13.275 18.2625 13.8 17.9625 14.1 17.4375L20.325 7.53744C21.375 9.03745 21.975 10.8375 21.975 12.7875C21.975 17.8125 17.85 21.9375 12.825 21.9375C7.8 21.8625 3.675 17.7375 3.675 12.7125Z" fill="#EF7001"/>
</g>
<defs>
<clipPath id="clip0_28_4905">
<rect width="149" height="30" fill="white"/>
</clipPath>
</defs>
</svg>
