<svg width="215" height="33" viewBox="0 0 215 33" fill="none" xmlns="http://www.w3.org/2000/svg">
<path d="M108.499 0V4.76079H113.696V0H108.499ZM108.499 6.80231V23.8067H113.696V6.80231H108.499Z" fill="white"/>
<path d="M77.0156 6.25662C71.6147 6.25662 67.9829 9.72527 67.9829 15.3016C67.9829 20.8779 71.6174 24.3465 77.0156 24.3465C82.4137 24.3465 86.0482 20.8779 86.0482 15.3016C86.0482 9.72527 82.4137 6.25662 77.0156 6.25662ZM77.0156 19.9604C75.0456 19.9604 73.2462 18.7702 73.2462 15.3016C73.2462 11.8329 75.0456 10.6097 77.0156 10.6097C78.9855 10.6097 80.7849 11.8687 80.7849 15.3016C80.7849 18.7344 78.9855 19.9604 77.0156 19.9604Z" fill="white"/>
<path d="M99.296 6.29262C96.2393 6.29262 94.1675 8.43607 93.5897 10.4748H93.3861V0H88.1888V23.8067H93.3861L93.3174 20.203H93.521C93.9969 22.1426 95.6615 24.3522 99.0567 24.3522C103.473 24.3522 106.562 20.6797 106.562 15.4423C106.562 10.2048 103.709 6.29537 99.2933 6.29537L99.296 6.29262ZM97.2243 19.9964C95.1525 19.9964 93.2513 18.7043 93.2513 15.3706C93.2513 12.037 95.1525 10.6429 97.2243 10.6429C99.296 10.6429 101.233 11.9681 101.233 15.3706C101.233 18.7732 99.3648 19.9964 97.2243 19.9964Z" fill="white"/>
<path d="M122.6 19.5198C121.513 19.5198 121.139 18.9081 121.139 17.8199V0H116.043V18.7043C116.043 22.1399 117.81 23.8067 121.241 23.8067H123.585V19.5225H122.6V19.5198Z" fill="white"/>
<path d="M142.602 14.6238C142.602 8.97865 138.8 6.25662 133.839 6.25662C128.609 6.25662 124.806 9.55446 124.806 15.3016C124.806 21.5942 129.255 24.3465 133.671 24.3465C138.087 24.3465 141.719 22.4069 142.398 18.2247H137.372C136.896 19.7896 135.402 20.3324 133.941 20.3324C131.971 20.3324 129.83 19.3791 129.764 16.4559H142.431C142.533 16.0151 142.602 15.4366 142.602 14.6183V14.6238ZM137.372 13.4667H129.866C129.968 11.359 131.564 9.99803 133.704 9.99803C135.845 9.99803 137.441 11.2902 137.372 13.4667Z" fill="white"/>
<path d="M153.495 19.9635C151.525 19.9635 149.725 18.7733 149.725 15.3046C149.725 11.836 151.525 10.6127 153.495 10.6127C155.09 10.6127 156.482 11.2602 156.857 13.6047H162.222C161.883 8.46925 158.282 6.25967 153.495 6.25967C148.094 6.25967 144.462 9.72833 144.462 15.3046C144.462 20.8809 148.096 24.3496 153.495 24.3496C158.282 24.3496 161.883 22.14 162.222 17.0045H156.857C156.482 19.3518 155.09 19.9635 153.495 19.9635Z" fill="white"/>
<path d="M181.6 19.6577C180.615 19.6577 180.309 19.3188 180.309 18.3986V12.7203C180.309 8.81088 177.728 6.25967 172.465 6.25967C166.896 6.25967 163.941 8.91282 163.941 12.4504H169.342C169.342 10.9543 170.564 10.2738 172.297 10.2738C174.267 10.2738 175.115 11.4971 175.115 13.1997V13.7425L170.088 14.1172C166.453 14.3899 164.145 16.0209 164.145 19.2857C164.145 22.2447 165.98 24.2173 169.51 24.2173C173.04 24.2173 174.773 22.2447 175.249 20.4429H175.453V20.5448C175.453 22.7213 176.914 23.8096 179.731 23.8096H182.381V19.6604H181.6V19.6577ZM171.785 20.6109C169.917 20.6109 169.477 19.7265 169.477 18.8091C169.477 17.8916 170.019 17.1423 172.193 16.9384L175.181 16.6656C175.181 19.3518 173.618 20.6109 171.785 20.6109Z" fill="white"/>
<path d="M194.338 6.49649C190.908 6.49649 190.162 9.01188 189.551 11.9047H189.381L189.515 6.80231H184.318V23.8067H189.515V17.6849C189.515 12.1417 191.554 11.8689 194.338 11.8689H195.832V6.63149C195.392 6.56261 194.916 6.49649 194.338 6.49649Z" fill="white"/>
<path d="M214.77 14.6238C214.77 8.97865 210.968 6.25662 206.007 6.25662C200.777 6.25662 196.974 9.55446 196.974 15.3016C196.974 21.5942 201.423 24.3465 205.839 24.3465C210.255 24.3465 213.887 22.4069 214.566 18.2247H209.54C209.064 19.7896 207.57 20.3324 206.109 20.3324C204.139 20.3324 201.998 19.3791 201.932 16.4559H214.599C214.701 16.0151 214.77 15.4366 214.77 14.6183V14.6238ZM209.54 13.4667H202.034C202.136 11.359 203.732 9.99803 205.872 9.99803C208.013 9.99803 209.608 11.2902 209.54 13.4667Z" fill="white"/>
<path d="M66.3488 23.8038H61.9439L61.4651 17.1861L61.2588 14.3318V14.2629H61.0552L61.0332 14.3483L60.78 15.365L58.6808 23.801H53.954L51.8547 15.3622L51.6016 14.3483L51.5795 14.2629H51.3759V14.329L51.1696 17.1833L50.6909 23.801H46.2859L46.9243 15.8058L47.6864 6.25113H53.8384L53.9512 6.70296L56.1908 15.7066L56.2128 15.792H56.4164L56.4384 15.7066L58.6808 6.68643L58.7881 6.25113H64.9401L65.7022 15.8058L66.3405 23.801L66.3488 23.8038Z" fill="white"/>
<path d="M34.7277 23.7877C34.4965 24.0908 34.2599 24.3883 34.0123 24.6776C33.9518 24.7492 33.8912 24.8209 33.828 24.8925C33.7729 24.9531 33.7207 25.0165 33.6656 25.0771C33.4538 25.314 33.2364 25.5482 33.0136 25.7741C32.964 25.8265 32.9145 25.876 32.8622 25.9256C32.8127 25.9752 32.7604 26.0276 32.7109 26.0772C32.4826 26.3003 32.2514 26.518 32.0148 26.7301C31.9543 26.7852 31.891 26.8403 31.8305 26.8927C31.759 26.9533 31.6874 27.0167 31.6159 27.0773C31.327 27.3225 31.0298 27.5622 30.7272 27.7936C30.4933 27.9727 30.254 28.1462 30.0118 28.3143C29.8605 28.419 29.7092 28.5237 29.5551 28.6229C29.4093 28.7193 29.2607 28.8157 29.1094 28.9094C29.0186 28.9673 28.9251 29.0251 28.8315 29.0802C28.6609 29.1849 28.4876 29.2841 28.3115 29.3833C28.2097 29.4411 28.1107 29.4962 28.0089 29.5513C27.6925 29.7221 27.3733 29.8875 27.0486 30.0417C27.0294 30.05 27.0129 30.0583 26.9936 30.0665C26.669 30.2208 26.3416 30.3668 26.0086 30.5046C25.8711 30.5597 25.7335 30.6148 25.5959 30.6699C25.2135 30.8187 24.8228 30.9564 24.4294 31.0832C24.3221 31.1162 24.2148 31.152 24.1075 31.1823C24.0744 31.1934 24.0414 31.2016 24.0084 31.2127C23.9479 31.2319 23.8846 31.2485 23.8241 31.2678C23.3949 31.3917 22.9601 31.5019 22.5199 31.5984C22.3493 31.6369 22.1788 31.67 22.0054 31.7058C21.7578 31.7526 21.5074 31.7967 21.2543 31.8353C21.1085 31.8573 20.9627 31.8794 20.8169 31.8987C20.5472 31.9345 20.2748 31.9648 20.0025 31.9923C19.6805 32.0226 19.3531 32.0474 19.0257 32.0612C19.0092 32.0612 18.9955 32.0612 18.979 32.0612C18.6543 32.075 18.3296 32.0833 18.0022 32.0833C17.6748 32.0833 17.3474 32.075 17.0255 32.0612C17.009 32.0612 16.9952 32.0612 16.9787 32.0612C16.6513 32.0447 16.3267 32.0226 16.002 31.9923C15.7296 31.9675 15.4572 31.9345 15.1876 31.8987C15.0418 31.8794 14.896 31.8573 14.7501 31.8353C14.4998 31.7967 14.2494 31.7526 13.999 31.7058C13.8449 31.6755 13.6936 31.6452 13.5423 31.6121C13.523 31.6066 13.5038 31.6039 13.4845 31.5984C13.0443 31.5019 12.6096 31.3917 12.1804 31.2678C12.1198 31.2512 12.0566 31.2319 11.996 31.2127C11.963 31.2016 11.93 31.1934 11.897 31.1823C11.7897 31.1493 11.6824 31.1162 11.5751 31.0832C11.1816 30.9564 10.7909 30.8187 10.4085 30.6699C10.2709 30.6148 10.1334 30.5597 9.99581 30.5046C9.6629 30.3668 9.33274 30.2208 9.01083 30.0665C8.99157 30.0583 8.97506 30.05 8.9558 30.0417C8.63114 29.8875 8.30923 29.7221 7.99558 29.5513C7.89378 29.4962 7.79198 29.4411 7.69293 29.3833C7.51685 29.2841 7.34351 29.1822 7.17293 29.0802C6.92806 28.9342 6.68869 28.7799 6.44932 28.6229C6.29525 28.5209 6.14393 28.419 5.9926 28.3143C5.75048 28.1462 5.51112 27.9699 5.27725 27.7936C4.9746 27.5622 4.68021 27.3252 4.38857 27.0773C4.31703 27.0167 4.2455 26.9533 4.17396 26.8927C4.11343 26.8376 4.05015 26.7852 3.98962 26.7301C3.75301 26.518 3.51914 26.3003 3.29353 26.0772C3.24126 26.0276 3.19173 25.978 3.14221 25.9256C3.09268 25.876 3.04041 25.8237 2.99088 25.7741C2.76802 25.5454 2.55067 25.314 2.33881 25.0771C2.28379 25.0165 2.22876 24.9531 2.17648 24.8925C2.1132 24.8209 2.05267 24.7492 1.99214 24.6776C1.74727 24.3883 1.50791 24.0908 1.27679 23.7877L3.99237 21.0684L5.33228 19.7267C5.54138 20.0325 5.76149 20.3301 5.9926 20.6193C6.05863 20.702 6.12467 20.7847 6.19345 20.8673C6.24848 20.9362 6.30625 21.0023 6.36403 21.0684C6.6144 21.3605 6.87578 21.6415 7.14817 21.9142C7.42055 22.187 7.70119 22.4487 7.99283 22.6994C8.05886 22.7573 8.12765 22.8124 8.19368 22.8703C8.27622 22.9391 8.35876 23.0053 8.4413 23.0714C8.73019 23.3028 9.02733 23.5232 9.33273 23.7326C9.55009 23.8814 9.7702 24.0246 9.99306 24.1624C10.1829 24.2781 10.3755 24.3911 10.5708 24.4985C10.945 24.7079 11.3302 24.898 11.7237 25.0771C11.7869 25.1046 11.8502 25.1322 11.9135 25.1597C11.941 25.1707 11.9685 25.1845 11.996 25.1955C12.0291 25.2093 12.0648 25.2231 12.0978 25.2396C12.1309 25.2534 12.1666 25.2672 12.1996 25.281C12.2354 25.2947 12.2712 25.3085 12.3069 25.3223C12.3179 25.3278 12.3317 25.3305 12.3427 25.3361C12.3867 25.3526 12.4307 25.3719 12.4748 25.3884C12.4913 25.3939 12.5078 25.4022 12.5243 25.4077C12.5601 25.4215 12.5958 25.4352 12.6316 25.449C12.6674 25.4628 12.7031 25.4766 12.7389 25.4903C12.7664 25.5014 12.7939 25.5096 12.8214 25.5206C12.8545 25.5344 12.8902 25.5454 12.9232 25.5565C12.97 25.573 13.0195 25.5895 13.0663 25.6061C13.1654 25.6391 13.2672 25.6722 13.3662 25.7052C13.4047 25.7163 13.4405 25.73 13.479 25.7411C13.4983 25.7466 13.5175 25.7521 13.5368 25.7576C13.5753 25.7686 13.6111 25.7796 13.6496 25.7906C13.6826 25.8017 13.7156 25.8099 13.7486 25.8182C13.7569 25.8182 13.7679 25.8237 13.7762 25.8265C13.8092 25.8347 13.8422 25.8457 13.878 25.854C13.9165 25.865 13.955 25.876 13.9935 25.8843C14.0595 25.9008 14.1228 25.9201 14.1889 25.9367C14.2384 25.9504 14.2879 25.9615 14.3347 25.9725C14.3815 25.9835 14.4337 25.9973 14.4833 26.0083C14.5163 26.0166 14.5493 26.0248 14.5823 26.0303C14.6483 26.0469 14.7144 26.0606 14.7804 26.0744C14.8382 26.0882 14.8987 26.0992 14.9565 26.1102C14.9867 26.1157 15.017 26.1213 15.0473 26.1268C15.3582 26.1874 15.6746 26.2397 15.9937 26.281C16.2304 26.3114 16.4697 26.3361 16.7091 26.3582C16.9099 26.3747 17.1135 26.3885 17.3171 26.3968C17.5427 26.4078 17.7684 26.4105 17.994 26.4105C18.2223 26.4105 18.4479 26.405 18.6708 26.3968C18.8744 26.3885 19.0752 26.3747 19.2788 26.3582C19.5182 26.3389 19.7576 26.3141 19.9942 26.281C20.3134 26.2397 20.627 26.1874 20.9407 26.1268C20.9709 26.1213 21.0012 26.1157 21.0315 26.1075C21.0617 26.102 21.0892 26.0965 21.1195 26.0882C21.1498 26.0827 21.18 26.0772 21.2103 26.0689C21.2763 26.0551 21.3424 26.0414 21.4084 26.0248C21.557 25.9918 21.7028 25.9559 21.8486 25.9174C21.8981 25.9036 21.9477 25.8926 21.9944 25.8788C22.0385 25.8678 22.0797 25.854 22.1237 25.843C22.2916 25.7962 22.4567 25.7466 22.6217 25.6942C22.8969 25.6061 23.1693 25.5124 23.4389 25.4104C23.4691 25.3994 23.4967 25.3884 23.5269 25.3774C23.615 25.3443 23.703 25.3085 23.7911 25.2727C23.8598 25.2451 23.9286 25.2148 23.9947 25.1873C24.0222 25.1763 24.0497 25.1625 24.0772 25.1515C24.1405 25.1239 24.2038 25.0964 24.267 25.0688C24.6605 24.8925 25.0429 24.6996 25.4171 24.493C25.6124 24.3856 25.805 24.2726 25.9921 24.1569C26.215 24.0191 26.4351 23.8759 26.6525 23.7271C26.9579 23.5177 27.255 23.2973 27.5439 23.0659C27.6264 22.9997 27.709 22.9336 27.7915 22.8647C27.8603 22.8096 27.9263 22.7518 27.9924 22.6939C28.284 22.4432 28.5674 22.1815 28.837 21.9087C29.1067 21.636 29.3708 21.355 29.6212 21.0629C29.6789 20.9968 29.734 20.9307 29.7917 20.8618C29.8605 20.7791 29.9266 20.6965 29.9926 20.6138C30.2237 20.3246 30.4438 20.027 30.6529 19.7212L30.9941 20.0628L32.9943 22.0658L33.0961 22.1677L33.9958 23.0686L34.7111 23.7849L34.7277 23.7877Z" fill="white"/>
<path d="M36.0124 11.04L32.0119 15.0459L25.0097 8.0342L18.0076 15.0459L11.0026 8.0342L4.00046 15.0459L0 11.04L11.0026 0.0196533L18.0076 7.03135L25.0097 0.0196533L36.0124 11.04Z" fill="white"/>
</svg>
