<svg width="249" height="229" viewBox="0 0 249 229" fill="none" xmlns="http://www.w3.org/2000/svg">
<path d="M239.186 162.102H194.289L208.738 198.744L171.953 182.767L171.943 223.726L138.88 190.663L122.482 228.402L108.227 192.273L80.8254 219.675V178.429L37.4049 195.555L53.7619 157.898H13.7257L41.6505 129.973L0.547729 112.129L39.8969 96.6128L10.0543 66.7701H54.9926L40.543 30.1489L77.3386 46.1264V5.17745L110.33 38.1684L126.758 0.367767L141.023 36.5378L168.466 9.10519V50.4234L211.784 33.3382L195.437 70.9748H235.463L207.559 98.8792L248.682 116.744L209.354 132.26L239.186 162.102Z" fill="#F54E80"/>
<path d="M144.102 71.5242H160.113L105.942 155.791H89.931L144.102 71.5242ZM77.8929 91.6277C77.8929 85.4482 79.7388 80.5527 83.4304 76.9413C87.1221 73.3299 92.0176 71.5242 98.1169 71.5242C104.136 71.5242 108.951 73.3299 112.563 76.9413C116.254 80.5527 118.1 85.4482 118.1 91.6277C118.1 97.8073 116.254 102.703 112.563 106.314C108.951 109.926 104.136 111.731 98.1169 111.731C92.0176 111.731 87.1221 109.926 83.4304 106.314C79.7388 102.703 77.8929 97.8073 77.8929 91.6277ZM89.6902 91.6277C89.6902 95.2391 90.4527 97.8875 91.9775 99.5728C93.5825 101.178 95.629 101.98 98.1169 101.98C100.524 101.98 102.491 101.178 104.016 99.5728C105.621 97.8875 106.423 95.2391 106.423 91.6277C106.423 88.0966 105.621 85.4883 104.016 83.803C102.491 82.1177 100.524 81.275 98.1169 81.275C95.629 81.275 93.5825 82.1177 91.9775 83.803C90.4527 85.4883 89.6902 88.0966 89.6902 91.6277ZM131.462 135.567C131.462 129.467 133.308 124.612 137 121.001C140.692 117.389 145.547 115.583 151.566 115.583C157.585 115.583 162.44 117.389 166.132 121.001C169.824 124.612 171.669 129.467 171.669 135.567C171.669 141.746 169.824 146.682 166.132 150.373C162.44 153.985 157.585 155.791 151.566 155.791C145.467 155.791 140.571 153.985 136.879 150.373C133.268 146.682 131.462 141.746 131.462 135.567ZM143.139 135.567C143.139 139.258 143.902 141.947 145.426 143.632C147.032 145.237 149.078 146.04 151.566 146.04C154.054 146.04 156.06 145.237 157.585 143.632C159.11 141.947 159.872 139.258 159.872 135.567C159.872 132.036 159.07 129.467 157.465 127.862C155.94 126.177 153.974 125.334 151.566 125.334C149.078 125.334 147.032 126.177 145.426 127.862C143.902 129.467 143.139 132.036 143.139 135.567Z" fill="white"/>
</svg>
