<svg width="121" height="111" viewBox="0 0 121 111" fill="none" xmlns="http://www.w3.org/2000/svg">
<path d="M115.446 78.2423H93.7261L100.716 95.9685L82.9207 88.239L82.9157 108.054L66.921 92.0591L58.9881 110.316L52.0921 92.838L38.8359 106.094V86.1405L17.8304 94.4256L25.7434 76.2082H6.37508L19.8843 62.699L0 54.0666L19.0359 46.5604L4.59899 32.1234H26.3387L19.3485 14.4072L37.1491 22.1367V2.32678L53.1091 18.2868L61.0569 0L67.9578 17.498L81.2339 4.2269V24.2154L102.19 15.9501L94.2817 34.1575H113.645L100.146 47.6568L120.04 56.2991L101.014 63.8054L115.446 78.2423Z" fill="#D0FF16"/>
</svg>
