<svg width="232" height="214" viewBox="0 0 232 214" fill="none" xmlns="http://www.w3.org/2000/svg">
<path d="M223.127 151.143H181.174L194.676 185.381L160.303 170.452L160.294 208.725L129.4 177.83L114.077 213.094L100.757 179.335L75.1528 204.939V166.398L34.5803 182.401L49.8645 147.214H12.4542L38.5475 121.121L0.140625 104.447L36.9089 89.9488L9.02365 62.0636H51.0144L37.5126 27.8443L71.8948 42.7739V4.51082L102.722 35.3379L118.073 0.0166016L131.402 33.8143L157.045 8.18094V46.789L197.522 30.8245L182.247 65.9925H219.648L193.574 92.0666L232 108.759L195.251 123.258L223.127 151.143Z" fill="#F54E80"/>
<path d="M141.81 64.6588L158.668 67.0281L89.1585 147.74L72.3002 145.37L141.81 64.6588ZM69.1197 76.029C70.0342 69.5223 72.7022 64.6408 77.1237 61.3844C81.5453 58.1281 86.9672 56.9512 93.3894 57.8538C99.7271 58.7445 104.53 61.3584 107.798 65.6955C111.151 70.0444 112.37 75.4722 111.456 81.9789C110.541 88.4856 107.873 93.3672 103.452 96.6235C99.1146 99.8917 93.7772 101.08 87.4395 100.19C81.0172 99.2872 76.1298 96.6614 72.7771 92.3125C69.4244 87.9635 68.2052 82.5357 69.1197 76.029ZM81.5416 77.7748C81.0072 81.5774 81.4181 84.4788 82.7742 86.479C84.2268 88.4066 86.2628 89.5545 88.8824 89.9226C91.4175 90.2789 93.6066 89.7249 95.4497 88.2605C97.3891 86.7234 98.6261 84.0536 99.1605 80.251C99.683 76.5328 99.224 73.6677 97.7833 71.6556C96.4272 69.6554 94.4815 68.4772 91.9464 68.1209C89.3269 67.7528 87.0473 68.3372 85.1079 69.8742C83.2529 71.4231 82.0642 74.0567 81.5416 77.7748ZM119.023 130.222C119.926 123.799 122.588 118.96 127.009 115.704C131.431 112.447 136.811 111.265 143.148 112.155C149.486 113.046 154.331 115.666 157.684 120.015C161.037 124.364 162.262 129.749 161.359 136.172C160.445 142.678 157.771 147.602 153.337 150.943C148.916 154.199 143.536 155.382 137.198 154.491C130.776 153.589 125.889 150.963 122.536 146.614C119.28 142.192 118.109 136.728 119.023 130.222ZM131.318 131.95C130.772 135.837 131.177 138.78 132.533 140.781C133.986 142.708 136.022 143.856 138.641 144.224C141.261 144.592 143.492 144.044 145.335 142.58C147.19 141.031 148.391 138.313 148.937 134.426C149.46 130.708 148.995 127.885 147.542 125.957C146.186 123.957 144.24 122.779 141.705 122.422C139.086 122.054 136.806 122.639 134.867 124.176C133.024 125.64 131.841 128.231 131.318 131.95Z" fill="white"/>
</svg>
