<svg width="46" height="32" viewBox="0 0 46 32" fill="none" xmlns="http://www.w3.org/2000/svg">
<rect x="0.5" y="0.5" width="45" height="31" rx="3.5" fill="white"/>
<path d="M25.6768 15.6075C25.6768 20.5455 21.7197 24.5485 16.8384 24.5485C11.9571 24.5485 8 20.5455 8 15.6075C8 10.6695 11.9571 6.6665 16.8384 6.6665C21.7197 6.6665 25.6768 10.6695 25.6768 15.6075Z" fill="#ED0006"/>
<path d="M37.1429 15.6075C37.1429 20.5455 33.1858 24.5485 28.3045 24.5485C23.4232 24.5485 19.4661 20.5455 19.4661 15.6075C19.4661 10.6695 23.4232 6.6665 28.3045 6.6665C33.1858 6.6665 37.1429 10.6695 37.1429 15.6075Z" fill="#0099DF"/>
<path fill-rule="evenodd" clip-rule="evenodd" d="M22.5714 8.80225C24.4718 10.4422 25.6768 12.8824 25.6768 15.6073C25.6768 18.3323 24.4718 20.7725 22.5714 22.4124C20.6711 20.7725 19.4661 18.3323 19.4661 15.6073C19.4661 12.8824 20.6711 10.4422 22.5714 8.80225Z" fill="#6C6BBD"/>
<rect x="0.5" y="0.5" width="45" height="31" rx="3.5" stroke="#F9F7F6"/>
</svg>
