<svg width="46" height="32" viewBox="0 0 46 32" fill="none" xmlns="http://www.w3.org/2000/svg">
<rect x="0.5" y="0.5" width="45" height="31" rx="3.5" fill="white"/>
<path fill-rule="evenodd" clip-rule="evenodd" d="M19.4858 24.5979L19.7801 22.6657L19.1245 22.6499H15.9939L18.1695 8.39176C18.1763 8.34858 18.1982 8.3085 18.2302 8.27999C18.2624 8.25148 18.3034 8.23584 18.3462 8.23584H23.6249C25.3774 8.23584 26.5868 8.61269 27.2181 9.35661C27.5142 9.7056 27.7027 10.0704 27.7939 10.4717C27.8896 10.8928 27.8912 11.396 27.7979 12.0097L27.7911 12.0543V12.4476L28.0871 12.621C28.3364 12.7577 28.5345 12.9141 28.6865 13.0932C28.9396 13.3916 29.1034 13.7709 29.1726 14.2204C29.2442 14.6828 29.2205 15.2332 29.1034 15.8562C28.9683 16.5728 28.75 17.1969 28.4551 17.7076C28.1839 18.1781 27.8384 18.5685 27.4281 18.8709C27.0364 19.1583 26.571 19.3764 26.0449 19.516C25.5349 19.6532 24.9536 19.7225 24.3159 19.7225H23.9052C23.6115 19.7225 23.3262 19.8318 23.1022 20.0278C22.8775 20.2279 22.7291 20.5013 22.6835 20.8002L22.6524 20.9742L22.1324 24.3799L22.1089 24.5048C22.1026 24.5444 22.0919 24.5641 22.0761 24.5775C22.0621 24.5897 22.0419 24.5979 22.0222 24.5979H19.4858Z" fill="#28356A"/>
<path fill-rule="evenodd" clip-rule="evenodd" d="M28.3675 12.0996C28.3519 12.2037 28.3338 12.3101 28.3136 12.4194C27.6175 16.1136 25.2358 17.3898 22.1942 17.3898H20.6454C20.2734 17.3898 19.9599 17.6689 19.902 18.0482L18.8845 24.7192C18.8468 24.9683 19.0325 25.1927 19.2756 25.1927H22.0225C22.3477 25.1927 22.624 24.9485 22.6753 24.6169L22.7022 24.4727L23.2194 21.0804L23.2527 20.8944C23.3033 20.5617 23.5802 20.3173 23.9054 20.3173H24.3162C26.9775 20.3173 29.061 19.2006 29.6699 15.9688C29.9241 14.6188 29.7925 13.4915 29.1194 12.6987C28.9158 12.4597 28.6631 12.2612 28.3675 12.0996Z" fill="#298FC2"/>
<path fill-rule="evenodd" clip-rule="evenodd" d="M27.639 11.7997C27.5326 11.7676 27.4229 11.7386 27.3103 11.7124C27.1972 11.6868 27.0813 11.6642 26.962 11.6443C26.5444 11.5746 26.0868 11.5415 25.5967 11.5415H21.4593C21.3573 11.5415 21.2606 11.5653 21.174 11.6083C20.9831 11.7031 20.8414 11.8898 20.8071 12.1184L19.9268 17.8805L19.9016 18.0484C19.9595 17.6692 20.273 17.3901 20.645 17.3901H22.1937C25.2354 17.3901 27.6171 16.1132 28.3132 12.4197C28.334 12.3104 28.3515 12.204 28.3671 12.0999C28.191 12.0032 28.0003 11.9206 27.7949 11.8502C27.7441 11.8328 27.6918 11.816 27.639 11.7997Z" fill="#22284F"/>
<path fill-rule="evenodd" clip-rule="evenodd" d="M20.8073 12.1183C20.8417 11.8897 20.9834 11.703 21.1743 11.6089C21.2615 11.5657 21.3576 11.5419 21.4596 11.5419H25.597C26.0871 11.5419 26.5447 11.5751 26.9623 11.6449C27.0816 11.6646 27.1975 11.6874 27.3106 11.713C27.4232 11.739 27.5329 11.7682 27.6393 11.8001C27.6921 11.8164 27.7444 11.8334 27.7957 11.8502C28.0011 11.9205 28.192 12.0038 28.368 12.0998C28.5752 10.7346 28.3663 9.8051 27.6522 8.96342C26.8648 8.0367 25.4439 7.64014 23.6257 7.64014H18.3469C17.9755 7.64014 17.6586 7.91923 17.6013 8.29917L15.4026 22.704C15.3593 22.9889 15.5719 23.246 15.85 23.246H19.1089L20.8073 12.1183Z" fill="#28356A"/>
<rect x="0.5" y="0.5" width="45" height="31" rx="3.5" stroke="#F9F7F6"/>
</svg>
