<svg width="46" height="32" viewBox="0 0 46 32" fill="none" xmlns="http://www.w3.org/2000/svg">
<rect x="0.5" y="0.5" width="45" height="31" rx="3.5" fill="white"/>
<path fill-rule="evenodd" clip-rule="evenodd" d="M21.4103 20.7039V16.7911H23.4298C24.2574 16.7911 24.9558 16.5138 25.5252 15.9669L25.6619 15.8282C26.702 14.696 26.6337 12.9321 25.5252 11.8846C24.971 11.33 24.2118 11.0296 23.4298 11.045H20.188V20.7039H21.4103ZM21.4105 15.6048V12.2311H23.4607C23.9011 12.2311 24.3187 12.4006 24.63 12.7087C25.2906 13.3557 25.3058 14.434 24.668 15.1041C24.3567 15.4353 23.9163 15.6202 23.4607 15.6048H21.4105ZM31.3636 14.6112C30.8398 14.126 30.1261 13.8795 29.2226 13.8795C28.061 13.8795 27.188 14.3108 26.611 15.1658L27.689 15.8513C28.0838 15.2659 28.6229 14.9732 29.3062 14.9732C29.7389 14.9732 30.1565 15.135 30.4829 15.4277C30.8018 15.705 30.984 16.1055 30.984 16.5291V16.8141C30.5133 16.5522 29.9211 16.4136 29.1923 16.4136C28.342 16.4136 27.6587 16.6139 27.15 17.0221C26.6413 17.4303 26.3832 17.9695 26.3832 18.655C26.368 19.2789 26.6337 19.872 27.1044 20.2726C27.5827 20.7039 28.1901 20.9196 28.9038 20.9196C29.7465 20.9196 30.4146 20.5421 30.9233 19.7873H30.9764V20.7039H32.1456V16.6293C32.1456 15.7743 31.8875 15.0965 31.3636 14.6112ZM28.0461 19.4869C27.7955 19.3021 27.6436 19.0017 27.6436 18.6782C27.6436 18.3161 27.8107 18.0157 28.1372 17.777C28.4713 17.5382 28.8889 17.415 29.3825 17.415C30.0659 17.4072 30.5974 17.5613 30.9771 17.8694C30.9771 18.3932 30.7721 18.8476 30.3696 19.2327C30.0051 19.6025 29.5116 19.8104 28.9952 19.8104C28.6535 19.8181 28.3194 19.7026 28.0461 19.4869ZM34.7725 23.6077L38.8571 14.0951H37.5284L35.638 18.8399H35.6152L33.6792 14.0951H32.3506L35.0306 20.2802L33.5122 23.6077H34.7725Z" fill="#3C4043"/>
<path d="M17.1905 15.9439C17.1905 15.5665 17.1601 15.1891 17.0994 14.8193H11.9443V16.9529H14.8977C14.7762 17.6384 14.3814 18.2546 13.8044 18.6398V20.0262H15.5658C16.5983 19.0634 17.1905 17.6385 17.1905 15.9439Z" fill="#4285F4"/>
<path d="M11.9445 21.3662C13.4173 21.3662 14.6625 20.8732 15.5659 20.0259L13.8045 18.6395C13.3111 18.9784 12.6809 19.1709 11.9445 19.1709C10.5172 19.1709 9.31001 18.1927 8.87726 16.8833H7.06274V18.316C7.98898 20.1877 9.87942 21.3662 11.9445 21.3662Z" fill="#34A853"/>
<path d="M8.87746 16.8834C8.64966 16.1978 8.64966 15.4507 8.87746 14.7575V13.3325H7.06266C6.28055 14.8961 6.28055 16.7447 7.06266 18.3083L8.87746 16.8834Z" fill="#FBBC04"/>
<path d="M11.9445 12.47C12.7265 12.4546 13.4781 12.755 14.0399 13.3018L15.6039 11.7151C14.6093 10.7754 13.3035 10.2593 11.9445 10.2747C9.87942 10.2747 7.98898 11.4609 7.06274 13.3326L8.87726 14.7653C9.31001 13.4482 10.5172 12.47 11.9445 12.47Z" fill="#EA4335"/>
<rect x="0.5" y="0.5" width="45" height="31" rx="3.5" stroke="#F9F7F6"/>
</svg>
