<svg width="46" height="32" viewBox="0 0 46 32" fill="none" xmlns="http://www.w3.org/2000/svg">
<rect x="0.5" y="0.5" width="45" height="31" rx="5.5" fill="white"/>
<path fill-rule="evenodd" clip-rule="evenodd" d="M12.6965 11.1244C12.3097 11.5936 11.6909 11.9636 11.0721 11.9108C10.9948 11.2764 11.2977 10.6023 11.6522 10.186C12.039 9.70357 12.7158 9.35993 13.2638 9.3335C13.3282 9.99434 13.0768 10.642 12.6965 11.1244ZM13.2573 12.0363C12.7121 12.0042 12.2147 12.2044 11.8129 12.3662C11.5543 12.4702 11.3353 12.5584 11.1687 12.5584C10.9818 12.5584 10.7538 12.4655 10.4978 12.3613C10.1624 12.2247 9.7789 12.0685 9.37675 12.076C8.45497 12.0892 7.59764 12.6245 7.12708 13.477C6.16018 15.1819 6.87569 17.7063 7.81036 19.0941C8.26803 19.7814 8.81594 20.5347 9.5379 20.5083C9.85552 20.496 10.084 20.3966 10.3204 20.2938C10.5927 20.1753 10.8755 20.0523 11.317 20.0523C11.7433 20.0523 12.0137 20.1721 12.2733 20.2871C12.5201 20.3965 12.7571 20.5015 13.109 20.4951C13.8567 20.4819 14.3273 19.8078 14.785 19.1205C15.2789 18.3829 15.4959 17.663 15.5289 17.5538L15.5327 17.5411C15.5319 17.5403 15.5258 17.5375 15.5151 17.5324L15.5151 17.5324C15.3499 17.4549 14.088 16.8626 14.0759 15.2744C14.0638 13.9414 15.0769 13.266 15.2363 13.1596L15.2364 13.1596C15.246 13.1532 15.2526 13.1488 15.2555 13.1465C14.6109 12.1685 13.6053 12.0628 13.2573 12.0363ZM18.4335 20.4224V10.1199H22.2044C24.1511 10.1199 25.5112 11.4944 25.5112 13.5034C25.5112 15.5123 24.1253 16.9001 22.1528 16.9001H19.9934V20.4224H18.4335ZM19.9933 11.468H21.7917C23.1454 11.468 23.9189 12.2081 23.9189 13.51C23.9189 14.8119 23.1454 15.5586 21.7853 15.5586H19.9933V11.468ZM30.6617 19.1866C30.2491 19.9928 29.3403 20.5017 28.3605 20.5017C26.9101 20.5017 25.8981 19.6162 25.8981 18.2813C25.8981 16.9596 26.8779 16.1996 28.6892 16.0873L30.6359 15.9683V15.4C30.6359 14.5607 30.1009 14.1048 29.1469 14.1048C28.3605 14.1048 27.7868 14.5211 27.6707 15.1555H26.2655C26.3106 13.8206 27.5354 12.8492 29.192 12.8492C30.9775 12.8492 32.1378 13.8074 32.1378 15.2943V20.4224H30.6939V19.1866H30.6617ZM28.7793 19.2791C27.9478 19.2791 27.4192 18.8694 27.4192 18.2416C27.4192 17.594 27.9285 17.2173 28.9018 17.1578L30.6358 17.0455V17.627C30.6358 18.5919 29.8365 19.2791 28.7793 19.2791ZM36.9272 20.8255C36.3019 22.6296 35.5864 23.2244 34.0651 23.2244C33.9491 23.2244 33.5623 23.2111 33.4721 23.1847V21.9489C33.5688 21.9622 33.8073 21.9754 33.9298 21.9754C34.6195 21.9754 35.0063 21.678 35.2448 20.9048L35.3866 20.4488L32.7437 12.9483H34.3745L36.2117 19.0346H36.2439L38.081 12.9483H39.6667L36.9272 20.8255Z" fill="black"/>
<rect x="0.5" y="0.5" width="45" height="31" rx="5.5" stroke="#F9F7F6"/>
</svg>
