<?xml version="1.0" standalone="no"?>
<!DOCTYPE svg PUBLIC "-//W3C//DTD SVG 1.1//EN" "http://www.w3.org/Graphics/SVG/1.1/DTD/svg11.dtd" >
<svg xmlns="http://www.w3.org/2000/svg">
<metadata>Generated by IcoMoon</metadata>
<defs>
<font id="icomoon" horiz-adv-x="1024">
<font-face units-per-em="1024" ascent="960" descent="-64" />
<missing-glyph horiz-adv-x="1024" />
<glyph unicode="&#x20;" horiz-adv-x="512" d="" />
<glyph unicode="&#xe900;" glyph-name="alert" d="M844.797 195.2l-67.2 172.8v147.2c0 159.998-121.6 291.198-268.8 291.198s-268.8-131.2-268.8-291.198v-147.2l-67.2-172.8h227.2v-102.4h214.4v102.4h230.4zM326.397 352v163.2c0 115.2 83.2 207.998 185.6 207.998s185.6-92.798 185.6-207.998v-163.2l28.8-73.6h-428.8l28.8 73.6zM537.597 172.8h-48v19.2h48v-19.2z" />
<glyph unicode="&#xe901;" glyph-name="arrow-down" d="M512.003 230.4l-348.8 380.8 60.8 54.402 288-313.602 288 313.602 60.8-54.402-348.8-380.8z" />
<glyph unicode="&#xe902;" glyph-name="arrow-left" d="M675.2 99.197l-380.802 348.8 380.802 348.8 54.4-60.8-313.6-288 313.6-288-54.4-60.8z" />
<glyph unicode="&#xe903;" glyph-name="arrow-right" d="M348.8 99.197l-54.402 60.8 313.602 288-313.602 288 54.402 60.8 380.8-348.8-380.8-348.8z" />
<glyph unicode="&#xe904;" glyph-name="arrows3-down" d="M387.2 563.197l128-118.4 121.6 118.4 57.6-57.6-179.2-172.8-185.6 172.8 57.6 57.6zM387.2 329.594l128-118.4 121.6 118.4 57.6-57.6-179.2-172.8-185.6 172.8 57.6 57.6zM387.2 796.797l128-118.4 121.6 118.4 57.6-57.6-179.2-172.8-185.6 169.6 57.6 60.8z" />
<glyph unicode="&#xe905;" glyph-name="arrows3-up" d="M636.8 332.797l-128 118.4-121.6-118.4-57.6 57.6 179.2 172.8 185.6-172.8-57.6-57.6zM636.8 566.397l-128 118.4-121.6-118.4-57.6 57.6 179.2 172.8 185.6-172.8-57.6-57.6zM636.8 99.194l-128 118.4-121.6-118.4-57.6 57.6 179.2 172.8 185.6-169.6-57.6-60.8z" />
<glyph unicode="&#xe906;" glyph-name="arrow-up" d="M800 230.4l-288 313.6-288.001-313.6-60.8 54.4 348.801 380.802 348.8-380.802-60.8-54.4z" />
<glyph unicode="&#xe907;" glyph-name="bestseller" d="M505.6 41.597l-80 316.803-319.998 96 319.998 86.4 89.6 313.598 80-313.598 320-86.4-320-96-89.6-316.803zM412.8 448l83.2-25.6 16-60.8 19.2 60.8 83.2 25.6-83.2 22.4-19.2 64-19.2-64-80-22.4zM253.833 765.428l-55.661-61.843 83.25-74.927 55.66 61.841-83.249 74.928zM744.765 269.68l-55.661-61.843 83.251-74.928 55.661 61.843-83.251 74.928zM766.838 759.757l-74.928-83.25 61.843-55.66 74.928 83.249-61.843 55.661zM270.287 275.094l-74.928-83.251 61.843-55.661 74.929 83.251-61.844 55.661z" />
<glyph unicode="&#xe908;" glyph-name="box" d="M838.403 217.6h-652.802v454.398h236.798l86.4-95.998 99.2 102.398h230.403v-460.798zM268.802 300.8h486.398v294.4h-112l-137.6-137.6-121.6 131.2h-115.198v-288z" />
<glyph unicode="&#xe909;" glyph-name="calendar" d="M739.203 723.202v70.4h-83.2v-67.2h-288v67.2h-83.2v-67.2h-89.6v-623.998h630.4v620.798h-86.4zM745.603 185.6h-467.2v374.4h464v-374.4h3.2z" />
<glyph unicode="&#xe90a;" glyph-name="chat" d="M166.398 86.403v723.198h694.402v-547.198h-521.6l-172.802-176zM249.598 726.402v-438.402l54.4 54.4h473.598v384.002h-527.998z" />
<glyph unicode="&#xe90b;" glyph-name="check-circle" d="M512 806.398c-195.198 0-358.398-163.2-358.398-358.398 0-195.2 160-358.403 358.398-358.403 198.4 0 358.403 160.003 358.403 358.403 0 198.398-163.203 358.398-358.403 358.398zM470.4 304l-153.598 140.8 54.398 60.8 96-86.4 179.2 172.8 57.6-60.8-233.6-227.2z" />
<glyph unicode="&#xe90c;" glyph-name="check-circle-outline" d="M512 89.597c-195.198 0-358.398 160.003-358.398 358.403 0 198.398 163.2 358.398 358.398 358.398 195.2 0 358.403-160 358.403-358.398 0-198.4-163.203-358.403-358.403-358.403zM512 723.198c-150.4 0-275.198-121.598-275.198-275.198s121.598-275.2 275.198-275.2c153.6 0 275.2 121.6 275.2 275.2s-124.8 275.198-275.2 275.198zM470.4 304l-153.599 140.8 57.599 60.8 96-86.4 179.2 172.8 57.6-60.8-236.8-227.2z" />
<glyph unicode="&#xe90d;" glyph-name="contact" d="M732.797 60.803l-25.6 9.6c-16 3.2-400 140.8-572.8 569.6l-9.6 25.6 169.6 169.6 262.4-262.4-70.4-70.4 80-80 70.4 70.4 262.4-262.4-166.4-169.6zM220.797 646.403c137.6-316.8 409.6-454.4 489.6-489.6l70.4 70.4-147.2 147.2-70.4-70.4-198.4 198.4 70.4 70.4-144 144-70.4-70.4z" />
<glyph unicode="&#xe90e;" glyph-name="credit-card" d="M134.398 723.203v-547.2h755.198v547.2h-755.198zM806.4 640.003v-83.2h-588.802v83.2h588.802zM217.598 256.003v134.4h588.802v-134.4h-588.802z" />
<glyph unicode="&#xe90f;" glyph-name="delete" d="M752.003 649.602h-476.8v-560.002h476.8v560.002zM640 774.398l-28.8 32h-198.4l-28.8-32h-150.398v-83.2h556.802v83.2h-150.403z" />
<glyph unicode="&#xe910;" glyph-name="delete-outline" d="M275.203 89.6h476.8v560.002h-476.8v-560.002zM358.403 566.4h310.4v-393.6h-310.4v393.6zM640 774.398l-28.8 32h-198.4l-28.8-32h-150.398v-83.2h556.802v83.2h-150.403z" />
<glyph unicode="&#xe911;" glyph-name="delivery" d="M1001.597 454.4l-76.8 89.6-99.2 214.402h-156.8v35.2h-585.602v-83.2h499.202v-233.602h288l48-54.4v-147.2h-67.2c-19.2 48-64 80-118.4 80s-99.2-35.2-118.4-80h-179.2c-19.2 48-64 80-118.402 80-54.4 0-99.2-35.2-118.4-80h-115.2v-83.2h108.8c16-54.4 64-92.8 121.6-92.8 57.602 0 105.602 38.4 121.602 92.8h172.8c16-54.4 64-92.8 121.6-92.8s105.6 38.4 121.6 92.8h147.2v262.4h3.2zM313.595 185.6c-25.6 0-44.8 19.203-44.8 44.803 0 25.597 19.2 44.797 44.8 44.797 25.602 0 44.802-19.2 44.802-44.797 0-25.6-19.2-44.803-44.802-44.803zM729.597 185.6c-25.6 0-44.8 19.203-44.8 44.803 0 25.597 19.2 44.797 44.8 44.797s44.8-19.2 44.8-44.797c0-25.6-19.2-44.803-44.8-44.803zM665.597 672.002h105.6l51.2-112.002h-156.8v112.002zM339.2 518.4h-316.802v-83.2h316.802v83.2zM390.4 640h-316.798v-83.2h316.798v83.2z" />
<glyph unicode="&#xe912;" glyph-name="download" d="M636.8 496l-83.2-83.2v396.802h-83.2v-393.602l-83.2 80-57.6-60.8 185.6-172.797 179.2 172.797-57.6 60.8zM832 169.6h-640v-83.197h640v83.197z" />
<glyph unicode="&#xe913;" glyph-name="element-01" d="M838.403 371.2v-249.603h-249.603l-403.198 403.203v118.398h131.2v131.2h118.398l403.203-403.198z" />
<glyph unicode="&#xe914;" glyph-name="element-02" d="M649.6 447.997l169.6-169.6h-131.2v-131.2l-176 176-176-176v131.2h-131.199l172.799 172.8-172.799 172.8h131.199v124.8l176-176 176 176v-131.2h131.2l-169.6-169.6z" />
<glyph unicode="&#xe915;" glyph-name="element-03" d="M838.397 310.4h-128l41.6-105.6-105.6 44.797v-118.397l-96 96-48-108.8-38.4 105.6-76.8-76.8v118.4l-124.8-48.003 48 108.803h-115.2l80 80-118.4 51.2 112 44.8-86.4 86.4h128l-38.4 99.198 105.6-44.8v115.2l92.8-92.8 48 108.8 41.6-102.4 76.8 76.8v-118.398l124.8 47.998-48-108.798h115.2l-80-80 118.4-51.2-112-44.8 83.2-83.2z" />
<glyph unicode="&#xe916;" glyph-name="email" d="M182.398 710.398v-527.998h659.198v527.998h-659.198zM697.597 630.4l-185.597-182.4-185.6 179.2h371.197v3.2zM265.598 265.6v307.2l246.402-240 246.4 240v-307.2h-492.802z" />
<glyph unicode="&#xe917;" glyph-name="euro" d="M672 172.8c-108.8 0-204.8 64-249.6 160h224l38.4 83.2h-288c0 9.6-3.2 22.4-3.2 32 0 12.8 0 22.4 3.2 32h249.6l38.4 83.2h-262.4c44.8 92.802 137.6 160.002 249.6 160.002 60.8 0 118.4-19.2 166.4-54.4l51.197 67.2c-60.797 44.8-134.397 73.6-217.597 73.6-156.8 0-291.2-102.4-339.2-240.002h-150.402l-48-89.6h182.4c0-9.6-3.2-22.4-3.2-32 0-12.8 0-22.4 3.2-32h-134.4l-48-83.2h198.402c51.2-140.8 182.4-243.2 339.2-243.2 80 0 153.6 25.6 214.4 70.4l-51.2 64c-44.8-32-102.4-51.2-163.2-51.2z" />
<glyph unicode="&#xe918;" glyph-name="favourite-border" d="M512 99.2l-448 448 246.4 246.402 201.6-201.602 201.6 201.602 246.4-246.402-448-448zM179.2 547.2l332.8-329.6 332.8 332.8-131.2 131.202-201.6-201.602-201.6 198.402-131.2-131.202z" />
<glyph unicode="&#xe919;" glyph-name="folder" d="M499.2 688.003l-67.2 67.2h-304v-617.6h768v550.4h-396.8zM816 224.003h-608v384h604.8v-384h3.2z" />
<glyph unicode="&#xe91a;" glyph-name="gift" d="M896 716.802h-185.6v124.8h-393.6v-124.8h-188.8v-236.802h41.6v-425.597h681.6v425.597h44.8v236.802zM812.8 563.2h-259.2v73.6h259.2v-73.6zM627.2 758.402v-41.6h-73.6v41.6h73.6zM396.8 758.402h73.6v-41.6h-73.6v41.6zM211.2 633.6h259.2v-73.6h-259.2v73.6zM252.8 480h217.6v-342.4h-217.6v342.4zM771.2 137.6h-217.6v342.4h217.6v-342.4z" />
<glyph unicode="&#xe91b;" glyph-name="gift-voucher" d="M720 649.598c6.4 12.8 6.4 25.6 6.4 41.6 0 64-51.2 115.2-115.2 115.2-44.8 0-86.4-28.8-102.4-67.2-19.2 38.4-57.6 67.2-102.4 67.2-64 0-115.202-51.2-115.202-115.2 0-16 3.2-28.8 6.4-41.6h-163.2v-560.002h755.198v560.002h-169.597zM614.4 723.198c16 0 32-12.8 32-32s-12.8-32-32-32c-16 0-32 12.8-32 32s16 32 32 32zM409.6 723.198c16 0 32-12.8 32-32s-12.8-32-32-32c-19.2 0-32 12.8-32 32s12.8 32 32 32zM409.6 566.4l-67.2-92.8 67.2-48 102.4 140.8 102.4-140.8 67.197 48-67.197 92.8h195.197v-227.2h-591.998v227.2h192.002zM217.598 172.8v83.2h588.802v-83.2h-588.802z" />
<glyph unicode="&#xe91c;" glyph-name="home" d="M803.2 99.197h-83.2v364.8l-211.2 214.4-204.799-211.2v-368h-83.2v400l284.799 297.6 297.6-297.6v-400z" />
<glyph unicode="&#xe91d;" glyph-name="info" d="M512 806.398c-195.198 0-358.398-163.2-358.398-358.398 0-195.2 160-358.403 358.398-358.403 198.4 0 358.403 160.003 358.403 358.403 0 198.398-163.203 358.398-358.403 358.398zM553.6 297.6h-83.2v176h83.2v-176zM553.6 515.2h-83.2v83.2h83.2v-83.2z" />
<glyph unicode="&#xe91e;" glyph-name="info-outline" d="M512 89.597c-195.198 0-358.398 160.003-358.398 358.403 0 198.398 163.2 358.398 358.398 358.398 195.2 0 358.403-160 358.403-358.398 0-198.4-163.203-358.403-358.403-358.403zM512 723.198c-150.4 0-275.198-121.598-275.198-275.198s121.598-275.2 275.198-275.2c153.6 0 275.2 121.6 275.2 275.2s-124.8 275.198-275.2 275.198zM553.6 473.6h-83.2v-176h83.2v176zM553.6 598.4h-83.2v-83.2h83.2v83.2z" />
<glyph unicode="&#xe91f;" glyph-name="language" d="M512 800c-195.2 0-352-156.8-352-352s156.8-352 352-352c195.2 0 352 156.8 352 352s-156.8 352-352 352zM732.8 598.4h-48c-12.8 28.8-28.8 57.6-48 86.4 38.4-19.2 73.6-51.2 96-86.4zM780.8 448c0-22.4-3.2-44.8-9.6-67.2h-64c3.2 19.2 6.4 38.4 6.4 60.8 0 25.6 0 48-6.4 73.6h60.8c9.6-22.4 12.8-44.8 12.8-67.2zM515.2 195.2c-32 35.2-60.8 70.4-80 105.6h156.8c-25.6-48-57.6-83.2-76.8-105.6zM403.2 380.8c-6.4 22.4-9.6 48-6.4 73.6 0 22.4 3.2 41.6 9.6 60.8h224c6.4-22.4 6.4-48 6.4-70.4s-3.2-44.8-9.6-64h-224zM243.2 448c0 22.4 3.2 44.8 9.6 67.2h67.2c-3.2-19.2-6.4-38.4-6.4-57.6 0-25.6 0-51.2 6.4-76.8h-67.2c-6.4 22.4-9.6 44.8-9.6 67.2zM515.2 704c35.2-35.2 60.8-70.4 80-105.6h-160c25.6 48 57.6 86.4 80 105.6zM393.6 688c-19.2-25.6-35.2-54.4-48-89.6h-54.4c25.6 38.4 60.8 70.4 102.4 89.6zM288 297.6h54.4c12.8-32 32-64 54.4-92.8-44.8 22.4-80 54.4-108.8 92.8zM633.6 208c19.2 25.6 35.2 57.6 51.2 89.6h51.2c-25.6-35.2-60.8-67.2-102.4-89.6z" />
<glyph unicode="&#xe920;" glyph-name="lg-arrow-down" d="M636.8 310.4l-83.2-80v585.6h-83.2v-582.4l-83.2 76.8-57.6-60.8 185.6-169.6 179.2 172.8-57.6 57.6z" />
<glyph unicode="&#xe921;" glyph-name="lg-arrow-left" d="M880 489.6h-582.4l76.8 83.2-60.8 57.6-169.6-185.6 172.8-179.2 57.6 57.6-80 83.2h585.6v83.2z" />
<glyph unicode="&#xe922;" glyph-name="lg-arrow-right" d="M707.2 630.4l-57.6-57.6 80-83.2h-585.6v-83.2h582.4l-76.8-83.2 60.8-57.6 169.6 185.6-172.8 179.2z" />
<glyph unicode="&#xe923;" glyph-name="lg-arrow-up" d="M694.4 646.4l-185.6 169.6-179.2-172.8 57.6-57.6 83.2 80v-585.6h83.2v582.4l83.2-76.8 57.6 60.8z" />
<glyph unicode="&#xe924;" glyph-name="lightbulb" d="M393.597 57.597h233.6v76.8h-233.6v-76.8zM454.397 835.196c-108.8-22.4-192-108.8-211.2-217.6-19.2-112 28.8-217.6 112-275.2v-128h313.6v128c70.4 51.2 118.4 131.2 118.4 224 0 169.6-156.8 304-332.8 268.8zM623.997 406.397l-32-22.4v-89.6h-156.8v89.6l-32 22.4c-54.4 38.4-83.2 96-83.2 160 0 108.8 86.4 195.2 195.2 195.2s195.2-86.4 195.2-195.2c-3.2-64-35.2-124.8-86.4-160z" />
<glyph unicode="&#xe925;" glyph-name="link" d="M470.4 377.597h-118.4c-38.402 0-70.402 32-70.402 70.4s32 70.4 70.402 70.4h118.4v86.4h-118.4c-86.402 0-153.602-70.4-153.602-153.6s70.4-153.6 153.602-153.6h118.4v80zM672 601.594h-118.4v-86.4h118.4c38.4 0 70.403-32 70.403-70.4s-32.003-70.4-70.403-70.4h-118.4v-86.4h118.4c86.4 0 153.6 70.4 153.6 153.6s-70.4 160-153.6 160zM624 486.4h-224v-73.6h224v73.6z" />
<glyph unicode="&#xe926;" glyph-name="location" d="M512 809.602c-140.8 0-252.801-112-252.801-252.802 0-188.8 252.801-467.2 252.801-467.2s252.8 278.4 252.8 467.2c0 137.602-112 252.802-252.8 252.802zM512 467.2c-51.2 0-89.6 41.6-89.6 89.6s41.6 89.602 89.6 89.602c48 0 89.6-41.602 89.6-89.602s-38.4-89.6-89.6-89.6z" />
<glyph unicode="&#xe927;" glyph-name="media" d="M771.2 127.997h-640l-3.2 508.8h83.2l3.2-425.6h556.8v-83.2zM585.6 704l-64 64h-255.998v-505.6h630.398v441.6h-310.4zM361.6 348.8l137.6 192 118.4-137.6 73.6 92.8 108.8-147.2h-438.4z" />
<glyph unicode="&#xe928;" glyph-name="package" d="M896 800h-768v-236.8h54.4v-467.2h659.2v467.2h54.4v236.8zM758.4 176h-492.8v384h492.8v-384zM211.2 720h598.4v-73.6h-598.4v73.6z" />
<glyph unicode="&#xe929;" glyph-name="pantool" d="M838.403 684.803v-592h-384.003l-268.798 272 57.6 54.4 150.398-86.4v384h89.6v-236.8h28.8v323.2h89.6v-326.4h28.8v297.6h89.6v-297.6h28.8v208h89.603z" />
<glyph unicode="&#xe92a;" glyph-name="pushpin" d="M729.6 464l-67.2 73.6v188.802h67.2v83.2h-435.2v-83.2h67.2v-195.202l-67.2-67.2h-38.4v-80h214.4v-297.597h83.2v297.597h214.4v80h-38.4z" />
<glyph unicode="&#xe92b;" glyph-name="remove-shopping-bag" d="M707.2 652.802c-3.2 105.6-89.6 188.8-195.2 188.8s-192.002-83.2-195.202-188.8h-134.4v-598.398h659.198v598.398h-134.397zM512 758.402c60.8 0 108.8-48 112-105.6h-227.2c6.4 57.6 54.4 105.6 115.2 105.6zM758.4 137.6h-492.802v432h492.802v-432zM646.4 390.4h-268.8v-83.2h268.8v83.2z" />
<glyph unicode="&#xe92c;" glyph-name="remove-shopping-card" d="M342.403 240c-38.4 0-67.2-32-67.2-67.2 0-38.4 28.8-67.2 67.2-67.2s67.2 32 67.2 67.2c0 38.4-28.8 67.2-67.2 67.2zM681.606 240c-38.4 0-67.2-32-67.2-67.2 0-38.4 28.8-67.2 67.2-67.2s67.2 32 67.2 67.2c0 38.4-32 67.2-67.2 67.2zM419.2 409.6h236.8l60.8 28.8 137.603 243.198-73.603 41.6-124.8-220.798-19.2-9.6h-214.4l-153.598 297.598h-99.2v-83.2h48l131.198-255.998-118.398-188.8h550.398v83.2h-400l38.4 64zM675.2 726.398h-268.8v-83.2h268.8v83.2z" />
<glyph unicode="&#xe92d;" glyph-name="repair" d="M883.197 499.2v83.2h-236.8v-92.8h-505.6v-83.2h505.6v-92.8h236.8v83.2h-153.6v102.4h153.6z" />
<glyph unicode="&#xe92e;" glyph-name="return-package" d="M128 800v-236.8h54.4v-467.2h659.2v467.2h54.4v236.8h-768zM265.6 176v384h492.8v-153.6h-230.4l60.8 60.8-57.6 57.6-156.8-156.8 156.8-156.8 57.6 57.6-60.8 60.8h230.4v-153.6h-492.8zM812.8 646.4h-601.6v73.6h598.4v-73.6h3.2z" />
<glyph unicode="&#xe92f;" glyph-name="sale" d="M540.8 99.197l-371.198 419.2 32 278.4h281.598l371.203-419.2-313.603-278.4zM256.002 543.997l291.198-329.6 188.8 169.6-291.2 329.6h-169.598l-19.2-169.6zM355.2 592c19.44 0 35.2 15.757 35.2 35.2 0 19.439-15.76 35.198-35.2 35.198s-35.2-15.76-35.2-35.198c0-19.443 15.76-35.2 35.2-35.2z" />
<glyph unicode="&#xe930;" glyph-name="search" d="M435.2 249.6c151.987 0 275.2 123.213 275.2 275.2 0 151.989-123.213 275.2-275.2 275.2-151.989 0-275.2-123.211-275.2-275.2 0-151.987 123.211-275.2 275.2-275.2zM698.077 321.91l-58.832-58.832 165.181-165.178 58.829 58.829-165.178 165.181z" />
<glyph unicode="&#xe931;" glyph-name="search-outline" d="M435.2 249.6c-150.4 0-275.2 121.6-275.2 275.2s124.8 275.2 275.2 275.2c150.4 0 275.2-121.6 275.2-275.2s-124.8-275.2-275.2-275.2zM435.2 716.8c-105.6 0-192-86.4-192-192s86.4-192 192-192c105.6 0 192 86.4 192 192s-86.4 192-192 192zM698.077 321.91l-58.832-58.832 165.181-165.178 58.829 58.829-165.178 165.181z" />
<glyph unicode="&#xe932;" glyph-name="settings" d="M784 412.797c0 12.8 3.2 22.4 3.2 35.2s0 25.6-3.2 35.2l89.597 70.4-89.597 153.6-105.6-41.6c-19.2 16-38.4 25.6-60.8 35.2l-16 112h-176l-16-112c-22.4-9.6-44.8-22.4-60.8-35.2l-108.802 41.6-89.6-153.6 89.6-70.4c0-12.8-3.2-22.4-3.2-35.2s0-25.6 3.2-35.2l-73.6-60.8-12.8-9.6 89.6-153.6 105.602 41.6c19.2-16 41.6-28.8 64-35.2l16-112h176c0 0 0 6.4 3.2 16l12.8 96c22.4 9.6 44.8 22.4 64 35.2l105.6-41.6 89.6 153.6c0 0-6.4 3.2-12.8 9.6l-83.2 60.8zM512 319.997c-70.4 0-128 57.6-128 128s57.6 128 128 128c70.4 0 128-57.6 128-128s-57.6-128-128-128z" />
<glyph unicode="&#xe933;" glyph-name="shopping-bag" d="M470.4 217.6h83.2v96h92.8v83.2h-92.8v92.8h-83.2v-92.8h-92.8v-83.2h92.8v-96zM707.2 652.802c-3.2 105.6-89.6 188.8-195.2 188.8s-192.002-83.2-195.202-188.8h-134.4v-598.398h659.198v598.398h-134.397zM512 758.402c60.8 0 108.8-48 112-105.6h-227.2c6.4 57.6 54.4 105.6 115.2 105.6zM758.4 137.6h-492.802v432h492.802v-432z" />
<glyph unicode="&#xe934;" glyph-name="shopping-bag-fill" d="M707.2 652.802c-3.2 105.6-89.6 188.8-195.2 188.8s-192.002-83.2-195.202-188.8h-134.4v-598.398h659.198v598.398h-134.397zM512 758.402c60.8 0 108.8-48 112-105.6h-227.2c6.4 57.6 54.4 105.6 115.2 105.6z" />
<glyph unicode="&#xe935;" glyph-name="shopping-bag-outline" d="M707.2 652.802c-3.2 105.6-89.6 188.8-195.2 188.8s-192.002-83.2-195.202-188.8h-134.4v-598.398h659.198v598.398h-134.397zM512 758.402c60.8 0 108.8-48 112-105.6h-227.2c6.4 57.6 54.4 105.6 115.2 105.6zM758.4 137.6h-492.802v432h492.802v-432z" />
<glyph unicode="&#xe936;" glyph-name="shopping-card" d="M342.403 227.197c-38.4 0-67.2-32-67.2-67.2 0-38.4 28.8-67.2 67.2-67.2s67.2 32 67.2 67.2c0 35.2-28.8 67.2-67.2 67.2zM681.606 227.197c-38.4 0-67.2-32-67.2-67.2 0-38.4 28.8-67.2 67.2-67.2s67.2 32 67.2 67.2c0 35.2-32 67.2-67.2 67.2zM419.2 393.6h236.8l60.8 32 137.603 243.202-73.603 38.4-124.8-217.602-19.2-12.8h-214.4l-153.598 300.802h-99.2v-83.2h48l131.198-256.002-118.398-188.8h550.398v83.2h-400l38.4 60.8zM499.203 534.4h83.2v92.8h92.8v83.198h-92.8v96h-83.2v-96h-96v-83.198h96v-92.8z" />
<glyph unicode="&#xe937;" glyph-name="shopping-card-blank" d="M342.403 240c-38.4 0-67.2-32-67.2-67.2 0-38.4 28.8-67.2 67.2-67.2s67.2 32 67.2 67.2c0 38.4-28.8 67.2-67.2 67.2zM681.606 240c-38.4 0-67.2-32-67.2-67.2 0-38.4 28.8-67.2 67.2-67.2s67.2 32 67.2 67.2c0 38.4-32 67.2-67.2 67.2zM419.2 409.6h236.8l60.8 28.8 137.603 243.198-73.603 41.6-124.8-220.798-19.2-9.6h-214.4l-153.598 297.598h-99.2v-83.2h48l131.198-255.998-118.398-188.8h550.398v83.2h-400l38.4 64z" />
<glyph unicode="&#xe938;" glyph-name="thumb-down" d="M457.6 163.197l204.8 204.8v364.8h-352l-102.4-246.4v-124.8h233.6l-28.8-153.6 44.8-44.8zM819.2 732.797h-83.2v-371.2h83.2v371.2z" />
<glyph unicode="&#xe939;" glyph-name="thumb-up" d="M566.394 732.797l-204.8-204.8v-361.6h352l105.6 243.2v124.8h-236.8l32 153.6-48 44.8zM287.997 534.4h-83.2v-371.2h83.2v371.2z" />
<glyph unicode="&#xe93a;" glyph-name="upload" d="M694.4 636.8l-185.6 172.802-179.2-172.802 57.6-57.6 83.2 80.002v-393.602h83.2v390.402l83.2-76.802 57.6 57.6zM832 166.4h-640v-83.2h640v83.2z" />
<glyph unicode="&#xe93b;" glyph-name="user" d="M512 521.6c-89.6 0-160 70.4-160 160.002 0 89.6 70.4 160 160 160s160-70.4 160-160c0-89.602-70.4-160.002-160-160.002zM512 761.602c-41.6 0-76.8-35.2-76.8-76.8s35.2-76.802 76.8-76.802c41.6 0 76.8 35.202 76.8 76.802s-35.2 76.8-76.8 76.8zM614.4 502.4l-102.4-102.4-102.4 102.4h-227.202v-451.2h83.2v368h108.802l137.6-137.6 137.6 137.6h108.8v-368h83.197v451.2h-227.197z" />
<glyph unicode="&#xe93c;" glyph-name="burgermenu" d="M844.8 489.6h-662.402v-83.2h662.402v83.2zM844.8 262.403h-508.8v-83.2h508.8v83.2zM844.797 713.602h-560v-83.202h560v83.202z" />
</font>
</defs>
</svg>
